<?xml version="1.0" encoding="utf-8"?><svg xmlns="http://www.w3.org/2000/svg" xmlns:xlink="http://www.w3.org/1999/xlink"><symbol viewBox="0 0 27 27" id="cart" xmlns="http://www.w3.org/2000/svg"><path d="M8.757 20.068a2.189 2.189 0 1 0 0 4.378 2.189 2.189 0 0 0 0-4.378zm.73 2.918h-1.46v-1.459h1.46v1.46zm0-10.216H24.81v-1.46H9.486v1.46zm0-6.567v1.46H27v-1.46H9.486zm10.945 13.865a2.19 2.19 0 1 0 0 4.378 2.19 2.19 0 0 0 0-4.378zm.73 2.918h-1.46v-1.459h1.46v1.46zM7.297 14.96L4.396 2.556 0 2.554v1.46h3.263l2.575 10.945a3.65 3.65 0 0 0 3.648 3.65h13.865v-1.46H9.486a2.19 2.19 0 0 1-2.189-2.19z"/></symbol><symbol viewBox="0 0 19 19" id="phone" xmlns="http://www.w3.org/2000/svg"><path d="M3.8 8.233c1.478 2.956 4.011 5.384 6.967 6.967l2.322-2.322c.316-.317.739-.422 1.055-.211 1.162.422 2.428.633 3.8.633.634 0 1.056.422 1.056 1.056v3.588c0 .634-.422 1.056-1.056 1.056C8.022 19 0 10.978 0 1.056 0 .422.422 0 1.056 0H4.75c.633 0 1.056.422 1.056 1.056 0 1.266.21 2.533.633 3.8.105.316 0 .738-.211 1.055L3.8 8.233z"/></symbol><symbol viewBox="0 0 21 21" id="search" xmlns="http://www.w3.org/2000/svg"><path d="M20.33 19.128l-5-5.198a8.452 8.452 0 0 0 1.99-5.451C17.32 3.804 13.516 0 8.84 0 4.166 0 .363 3.804.363 8.479c0 4.675 3.803 8.479 8.478 8.479 1.756 0 3.428-.53 4.858-1.535l5.036 5.238a1.1 1.1 0 0 0 .797.339 1.107 1.107 0 0 0 .797-1.872zM8.84 2.212a6.274 6.274 0 0 1 6.267 6.267 6.274 6.274 0 0 1-6.267 6.267 6.274 6.274 0 0 1-6.266-6.267A6.274 6.274 0 0 1 8.84 2.212z"/></symbol></svg>