<?xml version="1.0" encoding="utf-8"?><svg xmlns="http://www.w3.org/2000/svg" xmlns:xlink="http://www.w3.org/1999/xlink"><symbol viewBox="0 0 18 15" id="card_arrow" xmlns="http://www.w3.org/2000/svg"><path d="M17.755 6.875l-5.357-5.654a.806.806 0 0 0-1.183 0 .918.918 0 0 0 0 1.25l3.927 4.146H.837C.375 6.617 0 7.012 0 7.5s.375.883.837.883h14.305l-3.927 4.146a.919.919 0 0 0 0 1.25.813.813 0 0 0 .592.258.813.813 0 0 0 .591-.258l5.357-5.654a.918.918 0 0 0 0-1.25z"/></symbol><symbol viewBox="0 0 27 27" id="cart" xmlns="http://www.w3.org/2000/svg"><path d="M8.757 20.068a2.189 2.189 0 1 0 0 4.378 2.189 2.189 0 0 0 0-4.378zm.73 2.918h-1.46v-1.459h1.46v1.46zm0-10.216H24.81v-1.46H9.486v1.46zm0-6.567v1.46H27v-1.46H9.486zm10.945 13.865a2.19 2.19 0 1 0 0 4.378 2.19 2.19 0 0 0 0-4.378zm.73 2.918h-1.46v-1.459h1.46v1.46zM7.297 14.96L4.396 2.556 0 2.554v1.46h3.263l2.575 10.945a3.65 3.65 0 0 0 3.648 3.65h13.865v-1.46H9.486a2.19 2.19 0 0 1-2.189-2.19z"/></symbol><symbol viewBox="0 0 28 28" id="field_phone" xmlns="http://www.w3.org/2000/svg"><path d="M14 0C6.27 0 .002 6.269.002 14s6.269 14 14 14 14-6.269 14-14S21.732 0 14 0zm7.394 20.427l-1.121 1.122c-.2.2-.786.324-.805.324a13.23 13.23 0 0 1-9.47-3.87A13.245 13.245 0 0 1 6.127 8.5c0-.001.128-.57.328-.768l1.12-1.122c.41-.413 1.198-.599 1.75-.414l.236.079c.55.184 1.128.793 1.28 1.353l.564 2.07c.152.562-.053 1.362-.463 1.772l-.748.748a7.95 7.95 0 0 0 5.59 5.592l.748-.748c.412-.412 1.212-.617 1.773-.465l2.069.565c.56.154 1.169.729 1.353 1.279l.079.24c.183.55-.002 1.337-.412 1.745z"/><defs><clipPath id="cclip0"><path d="M0 0h28v28H0z"/></clipPath></defs></symbol><symbol viewBox="0 0 28 28" id="field_quest" xmlns="http://www.w3.org/2000/svg"><path d="M13.814.001C6.082.105-.101 6.457.002 14.188c.104 7.729 6.455 13.914 14.186 13.81 7.73-.103 13.914-6.455 13.811-14.187C27.896 6.084 21.544-.101 13.814.002zm-.042 22.52h-.077c-1.19-.036-2.03-.913-1.996-2.086.033-1.153.893-1.99 2.044-1.99l.07.002c1.223.036 2.053.904 2.019 2.11-.035 1.157-.88 1.965-2.06 1.965zm5.008-9.939c-.28.398-.895.892-1.671 1.496l-.854.59c-.47.365-.752.708-.859 1.045-.083.266-.124.336-.132.877l-.001.137h-3.262l.01-.276c.04-1.135.067-1.802.538-2.354.737-.866 2.365-1.914 2.434-1.958.233-.176.43-.376.576-.59.342-.471.494-.843.494-1.208 0-.507-.15-.976-.448-1.393-.286-.403-.829-.607-1.614-.607-.779 0-1.312.248-1.63.755-.329.521-.495 1.069-.495 1.628v.139H8.503l.006-.145c.087-2.06.822-3.544 2.185-4.41.856-.55 1.92-.83 3.164-.83 1.627 0 3 .396 4.082 1.175 1.095.79 1.651 1.974 1.651 3.517 0 .864-.273 1.675-.81 2.412z"/><defs><clipPath id="dclip0"><path d="M0 0h28v28H0z"/></clipPath></defs></symbol><symbol viewBox="0 0 28 28" id="field_user" xmlns="http://www.w3.org/2000/svg"><path d="M14 0C6.27 0 .002 6.268.002 14c0 7.731 6.268 14 14 14 7.731 0 14-6.269 14-14 0-7.732-6.269-14-14-14zm.043 20.605H7.978c0-4.374 3.84-4.373 4.693-5.516l.098-.522c-1.198-.607-2.043-2.07-2.043-3.78 0-2.255 1.466-4.083 3.275-4.083 1.808 0 3.275 1.828 3.275 4.082 0 1.697-.83 3.15-2.012 3.767l.11.593c.936 1.088 4.65 1.159 4.65 5.459h-5.98z"/><defs><clipPath id="eclip0"><path d="M0 0h28v28H0z"/></clipPath></defs></symbol><symbol viewBox="0 0 19 19" id="phone" xmlns="http://www.w3.org/2000/svg"><path d="M3.8 8.233c1.478 2.956 4.011 5.384 6.967 6.967l2.322-2.322c.316-.317.739-.422 1.055-.211 1.162.422 2.428.633 3.8.633.634 0 1.056.422 1.056 1.056v3.588c0 .634-.422 1.056-1.056 1.056C8.022 19 0 10.978 0 1.056 0 .422.422 0 1.056 0H4.75c.633 0 1.056.422 1.056 1.056 0 1.266.21 2.533.633 3.8.105.316 0 .738-.211 1.055L3.8 8.233z"/></symbol><symbol viewBox="0 0 21 21" id="search" xmlns="http://www.w3.org/2000/svg"><path d="M20.33 19.128l-5-5.198a8.452 8.452 0 0 0 1.99-5.451C17.32 3.804 13.516 0 8.84 0 4.166 0 .363 3.804.363 8.479c0 4.675 3.803 8.479 8.478 8.479 1.756 0 3.428-.53 4.858-1.535l5.036 5.238a1.1 1.1 0 0 0 .797.339 1.107 1.107 0 0 0 .797-1.872zM8.84 2.212a6.274 6.274 0 0 1 6.267 6.267 6.274 6.274 0 0 1-6.267 6.267 6.274 6.274 0 0 1-6.266-6.267A6.274 6.274 0 0 1 8.84 2.212z"/></symbol></svg>