<svg width="23" height="23" viewBox="0 0 23 23" fill="none" xmlns="http://www.w3.org/2000/svg">
<g clip-path="url(#clip0)">
<path d="M22.6868 10.7438L15.8424 3.89934C15.4248 3.48175 14.7475 3.48175 14.3299 3.89934C13.9122 4.31702 13.9122 4.99411 14.3299 5.41179L19.3487 10.4305H1.06944C0.478853 10.4305 0 10.9094 0 11.5C0 12.0905 0.478853 12.5694 1.06944 12.5694H19.3487L14.3301 17.5882C13.9124 18.0059 13.9124 18.683 14.3301 19.1006C14.5388 19.3093 14.8126 19.4139 15.0863 19.4139C15.36 19.4139 15.6337 19.3093 15.8425 19.1006L22.6868 12.2562C23.1045 11.8385 23.1045 11.1614 22.6868 10.7438Z" fill="#BBD3E3"/>
</g>
<defs>
<clipPath id="clip0">
<rect width="23" height="23" fill="white"/>
</clipPath>
</defs>
</svg>
