<svg width="212" height="35" viewBox="0 0 212 35" fill="none" xmlns="http://www.w3.org/2000/svg">
<path d="M11.5201 12.6426H4.56315V25.9581H0V8.37866H16.1581V25.9581H11.5949V12.6426H11.5201Z" fill="white"/>
<path d="M58.7226 8.37817H73.609V21.6936H76.6013L75.7036 29.7727H71.4397L71.7389 25.9576H59.6951L59.6203 29.7727H55.3564V21.6936H56.9273C57.6754 21.6188 58.199 21.0952 58.199 20.1227L58.7226 8.37817ZM62.2385 21.6936H68.9711V12.6421H63.1362L62.837 18.6266C62.7622 19.7487 62.6126 20.796 62.2385 21.6936Z" fill="white"/>
<path d="M103.756 25.9576H78.995V8.37817H83.5582V21.6936H89.019V8.37817H93.5822V21.6936H99.043V8.37817H103.606V25.9576H103.756Z" fill="white"/>
<path d="M113.78 25.9576H108.319V8.37817H112.882V20.2723H113.107L120.213 8.37817H125.674V25.9576H121.111V14.0634H120.886L113.78 25.9576Z" fill="white"/>
<path d="M141.832 12.6421H134.875V25.9576H130.312V8.37817H146.47V25.9576H141.907V12.6421H141.832Z" fill="white"/>
<path d="M163.227 19.0754H155.596V25.9576H151.033V8.37817H155.596V14.8115H163.227V8.37817H167.79V25.9576H163.227V19.0754Z" fill="white"/>
<path d="M177.888 25.9576H172.428V8.37817H176.991V20.2723H177.215L184.322 8.37817H189.783V25.9576H185.219V14.0634H184.92L177.888 25.9576Z" fill="white"/>
<path d="M204.968 16.3824V16.906L212 24.9851V25.9576H206.913L200.779 18.6266H198.984V25.9576H194.421V8.37817H198.984V14.8863H200.704L206.39 8.37817H211.177V9.35066L204.968 16.3824Z" fill="white"/>
<path d="M22.741 12.6423C22.9654 11.969 23.6387 11.6698 24.3119 11.8942C24.9852 12.1187 25.2844 12.7919 25.06 13.4652C24.8356 14.1384 24.1623 14.4376 23.4891 14.2132C22.8906 13.9888 22.5166 13.3155 22.741 12.6423Z" fill="white"/>
<path d="M25.06 20.7214C25.2844 21.3946 24.9104 22.0679 24.3119 22.2923C23.6387 22.5167 22.9654 22.1427 22.741 21.5442C22.5166 20.871 22.8906 20.1977 23.4891 19.9733C24.1623 19.7489 24.8356 20.1229 25.06 20.7214Z" fill="white"/>
<path d="M27.6782 7.18133C27.3042 6.65769 27.379 5.83483 27.9774 5.4608C28.501 5.08677 29.3239 5.16157 29.6979 5.76002C30.072 6.28366 29.9972 7.10654 29.3987 7.48057C28.8003 7.8546 28.0522 7.77977 27.6782 7.18133Z" fill="white"/>
<path d="M29.6231 28.3514C29.2491 28.8751 28.4263 29.0247 27.9026 28.6506C27.379 28.2766 27.2294 27.5285 27.6034 26.9301C27.9774 26.4065 28.8003 26.2568 29.3239 26.6309C29.9224 27.0797 30.072 27.8278 29.6231 28.3514Z" fill="white"/>
<path d="M36.3557 5.16162C37.0167 5.16162 37.5526 4.62575 37.5526 3.96472C37.5526 3.30369 37.0167 2.76782 36.3557 2.76782C35.6946 2.76782 35.1588 3.30369 35.1588 3.96472C35.1588 4.62575 35.6946 5.16162 36.3557 5.16162Z" fill="white"/>
<path d="M36.3557 31.3435C37.0167 31.3435 37.5526 30.8076 37.5526 30.1466C37.5526 29.4856 37.0167 28.9497 36.3557 28.9497C35.6946 28.9497 35.1588 29.4856 35.1588 30.1466C35.1588 30.8076 35.6946 31.3435 36.3557 31.3435Z" fill="white"/>
<path d="M36.3557 5.98462C30.2216 5.98462 25.2844 10.9218 25.2844 17.0559C25.2844 23.19 30.2216 28.1272 36.3557 28.1272C42.4898 28.1272 47.427 23.19 47.427 17.0559C47.427 10.9966 42.4898 5.98462 36.3557 5.98462ZM36.3557 26.1074C31.3437 26.1074 27.3042 22.0679 27.3042 17.0559C27.3042 12.0439 31.3437 8.00437 36.3557 8.00437C41.3677 8.00437 45.4072 12.0439 45.4072 17.0559C45.4072 22.0679 41.3677 26.1074 36.3557 26.1074Z" fill="white"/>
<path d="M43.0134 5.75992C43.3874 5.23628 44.2103 5.08667 44.734 5.4607C45.2576 5.83473 45.4072 6.58278 45.0332 7.18123C44.6591 7.70487 43.8363 7.8545 43.3126 7.48047C42.789 7.03164 42.6394 6.28356 43.0134 5.75992Z" fill="white"/>
<path d="M45.0332 26.9301C45.4072 27.4537 45.3324 28.2766 44.7339 28.6506C44.2103 29.0247 43.3874 28.9499 43.0134 28.3514C42.6394 27.8278 42.7142 27.0049 43.3126 26.6309C43.9111 26.2568 44.6591 26.4065 45.0332 26.9301Z" fill="white"/>
<path d="M36.3557 0C26.9301 0 19.2999 7.63021 19.2999 17.0558C19.2999 26.4813 26.9301 34.1115 36.3557 34.1115C45.7812 34.1115 53.4114 26.4813 53.4114 17.0558C53.4114 7.63021 45.7812 0 36.3557 0ZM36.3557 32.0917C28.0522 32.0917 21.3197 25.3592 21.3197 17.0558C21.3197 8.75229 28.0522 2.01976 36.3557 2.01976C44.6591 2.01976 51.3917 8.75229 51.3917 17.0558C51.3917 25.3592 44.6591 32.0917 36.3557 32.0917Z" fill="white"/>
<path d="M47.6514 13.3899C47.427 12.7167 47.801 12.0434 48.3994 11.819C49.0727 11.5946 49.7459 11.9686 49.9704 12.5671C50.1948 13.2403 49.8207 13.9136 49.2223 14.138C48.549 14.3624 47.8758 14.0632 47.6514 13.3899Z" fill="white"/>
<path d="M49.9704 21.4691C49.7459 22.1423 49.0727 22.4415 48.3994 22.2171C47.7262 21.9927 47.427 21.3195 47.6514 20.6462C47.8758 19.9729 48.549 19.6737 49.2223 19.8981C49.8207 20.1226 50.1948 20.8706 49.9704 21.4691Z" fill="white"/>
<path d="M22.741 12.6423C22.9654 11.969 23.6387 11.6698 24.3119 11.8942C24.9852 12.1187 25.2844 12.7919 25.06 13.4652C24.8356 14.1384 24.1623 14.4376 23.4891 14.2132C22.8906 13.9888 22.5166 13.3155 22.741 12.6423Z" fill="white"/>
<path d="M25.06 20.7214C25.2844 21.3946 24.9104 22.0679 24.3119 22.2923C23.6387 22.5167 22.9654 22.1427 22.741 21.5442C22.5166 20.871 22.8906 20.1977 23.4891 19.9733C24.1623 19.7489 24.8356 20.1229 25.06 20.7214Z" fill="white"/>
<path d="M27.6782 7.18133C27.3042 6.65769 27.379 5.83483 27.9774 5.4608C28.501 5.08677 29.3239 5.16157 29.6979 5.76002C30.072 6.28366 29.9972 7.10654 29.3987 7.48057C28.8003 7.8546 28.0522 7.77977 27.6782 7.18133Z" fill="white"/>
<path d="M29.6231 28.3514C29.2491 28.8751 28.4263 29.0247 27.9026 28.6506C27.379 28.2766 27.2294 27.5285 27.6034 26.9301C27.9774 26.4065 28.8003 26.2568 29.3239 26.6309C29.9224 27.0797 30.072 27.8278 29.6231 28.3514Z" fill="white"/>
<path d="M36.3557 5.16162C37.0167 5.16162 37.5526 4.62575 37.5526 3.96472C37.5526 3.30369 37.0167 2.76782 36.3557 2.76782C35.6946 2.76782 35.1588 3.30369 35.1588 3.96472C35.1588 4.62575 35.6946 5.16162 36.3557 5.16162Z" fill="white"/>
<path d="M36.3557 31.3435C37.0167 31.3435 37.5526 30.8076 37.5526 30.1466C37.5526 29.4856 37.0167 28.9497 36.3557 28.9497C35.6946 28.9497 35.1588 29.4856 35.1588 30.1466C35.1588 30.8076 35.6946 31.3435 36.3557 31.3435Z" fill="white"/>
<path d="M36.3557 5.98462C30.2216 5.98462 25.2844 10.9218 25.2844 17.0559C25.2844 23.19 30.2216 28.1272 36.3557 28.1272C42.4898 28.1272 47.427 23.19 47.427 17.0559C47.427 10.9966 42.4898 5.98462 36.3557 5.98462ZM36.3557 26.1074C31.3437 26.1074 27.3042 22.0679 27.3042 17.0559C27.3042 12.0439 31.3437 8.00437 36.3557 8.00437C41.3677 8.00437 45.4072 12.0439 45.4072 17.0559C45.4072 22.0679 41.3677 26.1074 36.3557 26.1074Z" fill="white"/>
<path d="M43.0134 5.75992C43.3874 5.23628 44.2103 5.08667 44.734 5.4607C45.2576 5.83473 45.4072 6.58278 45.0332 7.18123C44.6591 7.70487 43.8363 7.8545 43.3126 7.48047C42.789 7.03164 42.6394 6.28356 43.0134 5.75992Z" fill="white"/>
<path d="M45.0332 26.9301C45.4072 27.4537 45.3324 28.2766 44.7339 28.6506C44.2103 29.0247 43.3874 28.9499 43.0134 28.3514C42.6394 27.8278 42.7142 27.0049 43.3126 26.6309C43.9111 26.2568 44.6591 26.4065 45.0332 26.9301Z" fill="white"/>
<path d="M47.6514 13.3899C47.427 12.7167 47.801 12.0434 48.3994 11.819C49.0727 11.5946 49.7459 11.9686 49.9704 12.5671C50.1948 13.2403 49.8207 13.9136 49.2223 14.138C48.549 14.3624 47.8758 14.0632 47.6514 13.3899Z" fill="white"/>
<path d="M49.9704 21.4691C49.7459 22.1423 49.0727 22.4415 48.3994 22.2171C47.7262 21.9927 47.427 21.3195 47.6514 20.6462C47.8758 19.9729 48.549 19.6737 49.2223 19.8981C49.8207 20.1226 50.1948 20.8706 49.9704 21.4691Z" fill="white"/>
<path d="M22.741 12.6423C22.9654 11.969 23.6387 11.6698 24.3119 11.8942C24.9852 12.1187 25.2844 12.7919 25.06 13.4652C24.8356 14.1384 24.1623 14.4376 23.4891 14.2132C22.8906 13.9888 22.5166 13.3155 22.741 12.6423Z" fill="white"/>
<path d="M25.06 20.7214C25.2844 21.3946 24.9104 22.0679 24.3119 22.2923C23.6387 22.5167 22.9654 22.1427 22.741 21.5442C22.5166 20.871 22.8906 20.1977 23.4891 19.9733C24.1623 19.7489 24.8356 20.1229 25.06 20.7214Z" fill="white"/>
<path d="M27.6782 7.18133C27.3042 6.65769 27.379 5.83483 27.9774 5.4608C28.501 5.08677 29.3239 5.16157 29.6979 5.76002C30.072 6.28366 29.9972 7.10654 29.3987 7.48057C28.8003 7.8546 28.0522 7.77977 27.6782 7.18133Z" fill="white"/>
<path d="M29.6231 28.3514C29.2491 28.8751 28.4263 29.0247 27.9026 28.6506C27.379 28.2766 27.2294 27.5285 27.6034 26.9301C27.9774 26.4065 28.8003 26.2568 29.3239 26.6309C29.9224 27.0797 30.072 27.8278 29.6231 28.3514Z" fill="white"/>
<path d="M36.3557 5.16162C37.0167 5.16162 37.5526 4.62575 37.5526 3.96472C37.5526 3.30369 37.0167 2.76782 36.3557 2.76782C35.6946 2.76782 35.1588 3.30369 35.1588 3.96472C35.1588 4.62575 35.6946 5.16162 36.3557 5.16162Z" fill="white"/>
<path d="M36.3557 31.3435C37.0167 31.3435 37.5526 30.8076 37.5526 30.1466C37.5526 29.4856 37.0167 28.9497 36.3557 28.9497C35.6946 28.9497 35.1588 29.4856 35.1588 30.1466C35.1588 30.8076 35.6946 31.3435 36.3557 31.3435Z" fill="white"/>
<path d="M36.3557 5.98462C30.2216 5.98462 25.2844 10.9218 25.2844 17.0559C25.2844 23.19 30.2216 28.1272 36.3557 28.1272C42.4898 28.1272 47.427 23.19 47.427 17.0559C47.427 10.9966 42.4898 5.98462 36.3557 5.98462ZM36.3557 26.1074C31.3437 26.1074 27.3042 22.0679 27.3042 17.0559C27.3042 12.0439 31.3437 8.00437 36.3557 8.00437C41.3677 8.00437 45.4072 12.0439 45.4072 17.0559C45.4072 22.0679 41.3677 26.1074 36.3557 26.1074Z" fill="white"/>
<path d="M43.0134 5.75992C43.3874 5.23628 44.2103 5.08667 44.734 5.4607C45.2576 5.83473 45.4072 6.58278 45.0332 7.18123C44.6591 7.70487 43.8363 7.8545 43.3126 7.48047C42.789 7.03164 42.6394 6.28356 43.0134 5.75992Z" fill="white"/>
<path d="M45.0332 26.9301C45.4072 27.4537 45.3324 28.2766 44.7339 28.6506C44.2103 29.0247 43.3874 28.9499 43.0134 28.3514C42.6394 27.8278 42.7142 27.0049 43.3126 26.6309C43.9111 26.2568 44.6591 26.4065 45.0332 26.9301Z" fill="white"/>
<path d="M47.6514 13.3899C47.427 12.7167 47.801 12.0434 48.3994 11.819C49.0727 11.5946 49.7459 11.9686 49.9704 12.5671C50.1948 13.2403 49.8207 13.9136 49.2223 14.138C48.549 14.3624 47.8758 14.0632 47.6514 13.3899Z" fill="white"/>
<path d="M49.9704 21.4691C49.7459 22.1423 49.0727 22.4415 48.3994 22.2171C47.7262 21.9927 47.427 21.3195 47.6514 20.6462C47.8758 19.9729 48.549 19.6737 49.2223 19.8981C49.8207 20.1226 50.1948 20.8706 49.9704 21.4691Z" fill="white"/>
<path d="M36.3557 5.98462C30.2216 5.98462 25.2844 10.9218 25.2844 17.0559C25.2844 23.19 30.2216 28.1272 36.3557 28.1272C42.4898 28.1272 47.427 23.19 47.427 17.0559C47.427 10.9966 42.4898 5.98462 36.3557 5.98462ZM36.3557 26.1074C31.3437 26.1074 27.3042 22.0679 27.3042 17.0559C27.3042 12.0439 31.3437 8.00437 36.3557 8.00437C41.3677 8.00437 45.4072 12.0439 45.4072 17.0559C45.4072 22.0679 41.3677 26.1074 36.3557 26.1074Z" fill="white"/>
<path d="M36.3557 5.16162C37.0167 5.16162 37.5526 4.62575 37.5526 3.96472C37.5526 3.30369 37.0167 2.76782 36.3557 2.76782C35.6946 2.76782 35.1588 3.30369 35.1588 3.96472C35.1588 4.62575 35.6946 5.16162 36.3557 5.16162Z" fill="white"/>
<path d="M29.3987 7.48057C28.8751 7.8546 28.0522 7.77977 27.6782 7.18133C27.3042 6.58288 27.379 5.83483 27.9774 5.4608C28.501 5.08677 29.3239 5.16157 29.6979 5.76002C30.072 6.28366 29.9224 7.10654 29.3987 7.48057Z" fill="white"/>
<path d="M25.06 13.3905C24.8356 14.0637 24.1623 14.3629 23.4891 14.1385C22.8158 13.9141 22.5166 13.2408 22.741 12.5676C22.9654 11.8943 23.6387 11.5951 24.3119 11.8195C24.9104 12.0439 25.2844 12.792 25.06 13.3905Z" fill="white"/>
<path d="M24.3119 22.2923C23.6387 22.5167 22.9654 22.1427 22.741 21.5442C22.5166 20.871 22.8906 20.1977 23.4891 19.9733C24.1623 19.7489 24.8356 20.1229 25.06 20.7214C25.2844 21.3946 24.9104 22.0679 24.3119 22.2923Z" fill="white"/>
<path d="M29.6231 28.3514C29.2491 28.8751 28.4263 29.0247 27.9026 28.6506C27.379 28.2766 27.2294 27.5285 27.6034 26.9301C27.9774 26.4065 28.8003 26.2568 29.3239 26.6309C29.9224 27.0797 30.072 27.8278 29.6231 28.3514Z" fill="white"/>
<path d="M36.3557 31.3435C37.0167 31.3435 37.5526 30.8076 37.5526 30.1466C37.5526 29.4856 37.0167 28.9497 36.3557 28.9497C35.6946 28.9497 35.1588 29.4856 35.1588 30.1466C35.1588 30.8076 35.6946 31.3435 36.3557 31.3435Z" fill="white"/>
<path d="M44.7339 28.6505C44.2103 29.0245 43.3874 28.9497 43.0134 28.3513C42.6394 27.8276 42.7142 27.0047 43.3126 26.6307C43.8363 26.2567 44.6591 26.3315 45.0332 26.93C45.4072 27.4536 45.3324 28.2016 44.7339 28.6505Z" fill="white"/>
<path d="M49.9704 21.4691C49.7459 22.1423 49.0727 22.4415 48.3994 22.2171C47.7262 21.9927 47.427 21.3195 47.6514 20.6462C47.8758 19.9729 48.549 19.6737 49.2223 19.8981C49.8207 20.1226 50.1948 20.8706 49.9704 21.4691Z" fill="white"/>
<path d="M49.1475 14.138C48.4742 14.3624 47.801 13.9884 47.5766 13.3899C47.3521 12.7167 47.7262 12.0434 48.3246 11.819C48.9979 11.5946 49.6711 11.9686 49.8955 12.5671C50.1948 13.2403 49.8207 13.9884 49.1475 14.138Z" fill="white"/>
<path d="M45.0332 7.18123C44.6591 7.70487 43.8363 7.8545 43.3126 7.48047C42.789 7.10644 42.6394 6.35837 43.0134 5.75992C43.3874 5.23628 44.2103 5.08667 44.734 5.4607C45.3324 5.90954 45.4072 6.65759 45.0332 7.18123Z" fill="white"/>
</svg>
