<svg width="144" height="24" viewBox="0 0 144 24" fill="none" xmlns="http://www.w3.org/2000/svg">
<path d="M7.82498 8.58717H3.0995V17.6316H0V5.6909H10.9753V17.6316H7.87579V8.58717H7.82498Z" fill="#004D86"/>
<path d="M39.8871 5.6909H49.9986V14.7354H52.031L51.4213 20.223H48.525L48.7283 17.6316H40.5476L40.4968 20.223H37.6006V14.7354H38.6676C39.1757 14.6846 39.5314 14.3289 39.5314 13.6683L39.8871 5.6909ZM42.2752 14.7354H46.8483V8.58717H42.885L42.6817 12.6521C42.6309 13.4143 42.5293 14.1256 42.2752 14.7354Z" fill="#004D86"/>
<path d="M70.4756 17.6316H53.657V5.6909H56.7565V14.7354H60.4658V5.6909H63.5653V14.7354H67.2745V5.6909H70.374V17.6316H70.4756Z" fill="#004D86"/>
<path d="M77.2844 17.6316H73.5751V5.6909H76.6747V13.7699H76.8271L81.6542 5.6909H85.3634V17.6316H82.2639V9.55259H82.1115L77.2844 17.6316Z" fill="#004D86"/>
<path d="M96.3387 8.58717H91.6133V17.6316H88.5137V5.6909H99.4891V17.6316H96.3895V8.58717H96.3387Z" fill="#004D86"/>
<path d="M110.871 12.957H105.688V17.6316H102.589V5.6909H105.688V10.0607H110.871V5.6909H113.97V17.6316H110.871V12.957Z" fill="#004D86"/>
<path d="M120.83 17.6316H117.121V5.6909H120.22V13.7699H120.373L125.2 5.6909H128.909V17.6316H125.809V9.55259H125.606L120.83 17.6316Z" fill="#004D86"/>
<path d="M139.224 11.1277V11.4834L144 16.9711V17.6316H140.545L136.378 12.6521H135.159V17.6316H132.059V5.6909H135.159V10.1115H136.327L140.189 5.6909H143.441V6.35146L139.224 11.1277Z" fill="#004D86"/>
<path d="M15.4467 8.58717C15.5991 8.12986 16.0565 7.92662 16.5138 8.07905C16.9711 8.23149 17.1743 8.68879 17.0219 9.1461C16.8694 9.6034 16.4121 9.80665 15.9548 9.65421C15.5483 9.50178 15.2943 9.04447 15.4467 8.58717Z" fill="#004D86"/>
<path d="M17.0219 14.0748C17.1743 14.5321 16.9203 14.9894 16.5138 15.1418C16.0565 15.2943 15.5991 15.0402 15.4467 14.6337C15.2943 14.1764 15.5483 13.7191 15.9548 13.5667C16.4121 13.4143 16.8694 13.6683 17.0219 14.0748Z" fill="#004D86"/>
<path d="M18.8003 4.87791C18.5462 4.52222 18.597 3.9633 19.0035 3.70925C19.3592 3.45519 19.9181 3.506 20.1722 3.91249C20.4262 4.26817 20.3754 4.82711 19.9689 5.08116C19.5625 5.33522 19.0543 5.2844 18.8003 4.87791Z" fill="#004D86"/>
<path d="M20.1214 19.2576C19.8673 19.6133 19.3084 19.7149 18.9527 19.4608C18.597 19.2068 18.4954 18.6987 18.7495 18.2922C19.0035 17.9365 19.5625 17.8348 19.9181 18.0889C20.3246 18.3938 20.4262 18.9019 20.1214 19.2576Z" fill="#004D86"/>
<path d="M24.6944 3.50601C25.1434 3.50601 25.5074 3.14202 25.5074 2.69302C25.5074 2.24402 25.1434 1.88004 24.6944 1.88004C24.2454 1.88004 23.8814 2.24402 23.8814 2.69302C23.8814 3.14202 24.2454 3.50601 24.6944 3.50601Z" fill="#004D86"/>
<path d="M24.6944 21.2901C25.1434 21.2901 25.5074 20.9261 25.5074 20.4771C25.5074 20.0281 25.1434 19.6641 24.6944 19.6641C24.2454 19.6641 23.8814 20.0281 23.8814 20.4771C23.8814 20.9261 24.2454 21.2901 24.6944 21.2901Z" fill="#004D86"/>
<path d="M24.6944 4.06491C20.5279 4.06491 17.1743 7.41847 17.1743 11.585C17.1743 15.7516 20.5279 19.1051 24.6944 19.1051C28.861 19.1051 32.2145 15.7516 32.2145 11.585C32.2145 7.46928 28.861 4.06491 24.6944 4.06491ZM24.6944 17.7332C21.29 17.7332 18.5462 14.9894 18.5462 11.585C18.5462 8.18064 21.29 5.43681 24.6944 5.43681C28.0988 5.43681 30.8426 8.18064 30.8426 11.585C30.8426 14.9894 28.0988 17.7332 24.6944 17.7332Z" fill="#004D86"/>
<path d="M29.2167 3.91252C29.4707 3.55684 30.0296 3.45522 30.3853 3.70927C30.741 3.96333 30.8426 4.47144 30.5886 4.87793C30.3345 5.23361 29.7756 5.33525 29.4199 5.08119C29.0642 4.77632 28.9626 4.2682 29.2167 3.91252Z" fill="#004D86"/>
<path d="M30.5886 18.2922C30.8426 18.6478 30.7918 19.2068 30.3853 19.4608C30.0296 19.7149 29.4707 19.6641 29.2167 19.2576C28.9626 18.9019 29.0134 18.343 29.4199 18.0889C29.8264 17.8348 30.3345 17.9365 30.5886 18.2922Z" fill="#004D86"/>
<path d="M24.6944 0C18.2922 0 13.1094 5.18278 13.1094 11.585C13.1094 17.9873 18.2922 23.1701 24.6944 23.1701C31.0967 23.1701 36.2795 17.9873 36.2795 11.585C36.2795 5.18278 31.0967 0 24.6944 0ZM24.6944 21.7982C19.0543 21.7982 14.4813 17.2251 14.4813 11.585C14.4813 5.94496 19.0543 1.37191 24.6944 1.37191C30.3345 1.37191 34.9076 5.94496 34.9076 11.585C34.9076 17.2251 30.3345 21.7982 24.6944 21.7982Z" fill="#004D86"/>
<path d="M32.367 9.09527C32.2145 8.63796 32.4686 8.18065 32.8751 8.02822C33.3324 7.87578 33.7897 8.12984 33.9421 8.53634C34.0946 8.99364 33.8405 9.45095 33.434 9.60338C32.9767 9.75582 32.5194 9.55257 32.367 9.09527Z" fill="#004D86"/>
<path d="M33.9421 14.5829C33.7897 15.0402 33.3324 15.2435 32.8751 15.091C32.4178 14.9386 32.2145 14.4813 32.367 14.024C32.5194 13.5667 32.9767 13.3634 33.434 13.5159C33.8405 13.6683 34.0946 14.1764 33.9421 14.5829Z" fill="#004D86"/>
<path d="M15.4467 8.58717C15.5991 8.12986 16.0565 7.92662 16.5138 8.07905C16.9711 8.23149 17.1743 8.68879 17.0219 9.1461C16.8694 9.6034 16.4121 9.80665 15.9548 9.65421C15.5483 9.50178 15.2943 9.04447 15.4467 8.58717Z" fill="#004D86"/>
<path d="M17.0219 14.0748C17.1743 14.5321 16.9203 14.9894 16.5138 15.1418C16.0565 15.2943 15.5991 15.0402 15.4467 14.6337C15.2943 14.1764 15.5483 13.7191 15.9548 13.5667C16.4121 13.4143 16.8694 13.6683 17.0219 14.0748Z" fill="#004D86"/>
<path d="M18.8003 4.87791C18.5462 4.52222 18.597 3.9633 19.0035 3.70925C19.3592 3.45519 19.9181 3.506 20.1722 3.91249C20.4262 4.26817 20.3754 4.82711 19.9689 5.08116C19.5625 5.33522 19.0543 5.2844 18.8003 4.87791Z" fill="#004D86"/>
<path d="M20.1214 19.2576C19.8673 19.6133 19.3084 19.7149 18.9527 19.4608C18.597 19.2068 18.4954 18.6987 18.7495 18.2922C19.0035 17.9365 19.5625 17.8348 19.9181 18.0889C20.3246 18.3938 20.4262 18.9019 20.1214 19.2576Z" fill="#004D86"/>
<path d="M24.6944 3.50601C25.1434 3.50601 25.5074 3.14202 25.5074 2.69302C25.5074 2.24402 25.1434 1.88004 24.6944 1.88004C24.2454 1.88004 23.8814 2.24402 23.8814 2.69302C23.8814 3.14202 24.2454 3.50601 24.6944 3.50601Z" fill="#004D86"/>
<path d="M24.6944 21.2901C25.1434 21.2901 25.5074 20.9261 25.5074 20.4771C25.5074 20.0281 25.1434 19.6641 24.6944 19.6641C24.2454 19.6641 23.8814 20.0281 23.8814 20.4771C23.8814 20.9261 24.2454 21.2901 24.6944 21.2901Z" fill="#004D86"/>
<path d="M24.6944 4.06491C20.5279 4.06491 17.1743 7.41847 17.1743 11.585C17.1743 15.7516 20.5279 19.1051 24.6944 19.1051C28.861 19.1051 32.2145 15.7516 32.2145 11.585C32.2145 7.46928 28.861 4.06491 24.6944 4.06491ZM24.6944 17.7332C21.29 17.7332 18.5462 14.9894 18.5462 11.585C18.5462 8.18064 21.29 5.43681 24.6944 5.43681C28.0988 5.43681 30.8426 8.18064 30.8426 11.585C30.8426 14.9894 28.0988 17.7332 24.6944 17.7332Z" fill="#004D86"/>
<path d="M29.2167 3.91252C29.4707 3.55684 30.0296 3.45522 30.3853 3.70927C30.741 3.96333 30.8426 4.47144 30.5886 4.87793C30.3345 5.23361 29.7756 5.33525 29.4199 5.08119C29.0642 4.77632 28.9626 4.2682 29.2167 3.91252Z" fill="#004D86"/>
<path d="M30.5886 18.2922C30.8426 18.6478 30.7918 19.2068 30.3853 19.4608C30.0296 19.7149 29.4707 19.6641 29.2167 19.2576C28.9626 18.9019 29.0134 18.343 29.4199 18.0889C29.8264 17.8348 30.3345 17.9365 30.5886 18.2922Z" fill="#004D86"/>
<path d="M32.367 9.09527C32.2145 8.63796 32.4686 8.18065 32.8751 8.02822C33.3324 7.87578 33.7897 8.12984 33.9421 8.53634C34.0946 8.99364 33.8405 9.45095 33.434 9.60338C32.9767 9.75582 32.5194 9.55257 32.367 9.09527Z" fill="#004D86"/>
<path d="M33.9421 14.5829C33.7897 15.0402 33.3324 15.2435 32.8751 15.091C32.4178 14.9386 32.2145 14.4813 32.367 14.024C32.5194 13.5667 32.9767 13.3634 33.434 13.5159C33.8405 13.6683 34.0946 14.1764 33.9421 14.5829Z" fill="#004D86"/>
<path d="M15.4467 8.58717C15.5991 8.12986 16.0565 7.92662 16.5138 8.07905C16.9711 8.23149 17.1743 8.68879 17.0219 9.1461C16.8694 9.6034 16.4121 9.80665 15.9548 9.65421C15.5483 9.50178 15.2943 9.04447 15.4467 8.58717Z" fill="#004D86"/>
<path d="M17.0219 14.0748C17.1743 14.5321 16.9203 14.9894 16.5138 15.1418C16.0565 15.2943 15.5991 15.0402 15.4467 14.6337C15.2943 14.1764 15.5483 13.7191 15.9548 13.5667C16.4121 13.4143 16.8694 13.6683 17.0219 14.0748Z" fill="#004D86"/>
<path d="M18.8003 4.87791C18.5462 4.52222 18.597 3.9633 19.0035 3.70925C19.3592 3.45519 19.9181 3.506 20.1722 3.91249C20.4262 4.26817 20.3754 4.82711 19.9689 5.08116C19.5625 5.33522 19.0543 5.2844 18.8003 4.87791Z" fill="#004D86"/>
<path d="M20.1214 19.2576C19.8673 19.6133 19.3084 19.7149 18.9527 19.4608C18.597 19.2068 18.4954 18.6987 18.7495 18.2922C19.0035 17.9365 19.5625 17.8348 19.9181 18.0889C20.3246 18.3938 20.4262 18.9019 20.1214 19.2576Z" fill="#004D86"/>
<path d="M24.6944 3.50601C25.1434 3.50601 25.5074 3.14202 25.5074 2.69302C25.5074 2.24402 25.1434 1.88004 24.6944 1.88004C24.2454 1.88004 23.8814 2.24402 23.8814 2.69302C23.8814 3.14202 24.2454 3.50601 24.6944 3.50601Z" fill="#004D86"/>
<path d="M24.6944 21.2901C25.1434 21.2901 25.5074 20.9261 25.5074 20.4771C25.5074 20.0281 25.1434 19.6641 24.6944 19.6641C24.2454 19.6641 23.8814 20.0281 23.8814 20.4771C23.8814 20.9261 24.2454 21.2901 24.6944 21.2901Z" fill="#004D86"/>
<path d="M24.6944 4.06491C20.5279 4.06491 17.1743 7.41847 17.1743 11.585C17.1743 15.7516 20.5279 19.1051 24.6944 19.1051C28.861 19.1051 32.2145 15.7516 32.2145 11.585C32.2145 7.46928 28.861 4.06491 24.6944 4.06491ZM24.6944 17.7332C21.29 17.7332 18.5462 14.9894 18.5462 11.585C18.5462 8.18064 21.29 5.43681 24.6944 5.43681C28.0988 5.43681 30.8426 8.18064 30.8426 11.585C30.8426 14.9894 28.0988 17.7332 24.6944 17.7332Z" fill="#004D86"/>
<path d="M29.2167 3.91252C29.4707 3.55684 30.0296 3.45522 30.3853 3.70927C30.741 3.96333 30.8426 4.47144 30.5886 4.87793C30.3345 5.23361 29.7756 5.33525 29.4199 5.08119C29.0642 4.77632 28.9626 4.2682 29.2167 3.91252Z" fill="#004D86"/>
<path d="M30.5886 18.2922C30.8426 18.6478 30.7918 19.2068 30.3853 19.4608C30.0296 19.7149 29.4707 19.6641 29.2167 19.2576C28.9626 18.9019 29.0134 18.343 29.4199 18.0889C29.8264 17.8348 30.3345 17.9365 30.5886 18.2922Z" fill="#004D86"/>
<path d="M32.367 9.09527C32.2145 8.63796 32.4686 8.18065 32.8751 8.02822C33.3324 7.87578 33.7897 8.12984 33.9421 8.53634C34.0946 8.99364 33.8405 9.45095 33.434 9.60338C32.9767 9.75582 32.5194 9.55257 32.367 9.09527Z" fill="#004D86"/>
<path d="M33.9421 14.5829C33.7897 15.0402 33.3324 15.2435 32.8751 15.091C32.4178 14.9386 32.2145 14.4813 32.367 14.024C32.5194 13.5667 32.9767 13.3634 33.434 13.5159C33.8405 13.6683 34.0946 14.1764 33.9421 14.5829Z" fill="#004D86"/>
<path d="M24.6944 4.06491C20.5279 4.06491 17.1743 7.41847 17.1743 11.585C17.1743 15.7516 20.5279 19.1051 24.6944 19.1051C28.861 19.1051 32.2145 15.7516 32.2145 11.585C32.2145 7.46928 28.861 4.06491 24.6944 4.06491ZM24.6944 17.7332C21.29 17.7332 18.5462 14.9894 18.5462 11.585C18.5462 8.18064 21.29 5.43681 24.6944 5.43681C28.0988 5.43681 30.8426 8.18064 30.8426 11.585C30.8426 14.9894 28.0988 17.7332 24.6944 17.7332Z" fill="#004D86"/>
<path d="M24.6944 3.50601C25.1434 3.50601 25.5074 3.14202 25.5074 2.69302C25.5074 2.24402 25.1434 1.88004 24.6944 1.88004C24.2454 1.88004 23.8814 2.24402 23.8814 2.69302C23.8814 3.14202 24.2454 3.50601 24.6944 3.50601Z" fill="#004D86"/>
<path d="M19.9689 5.08116C19.6133 5.33522 19.0543 5.2844 18.8003 4.87791C18.5462 4.47141 18.597 3.9633 19.0035 3.70925C19.3592 3.45519 19.9181 3.506 20.1722 3.91249C20.4262 4.26817 20.3246 4.82711 19.9689 5.08116Z" fill="#004D86"/>
<path d="M17.0219 9.09529C16.8694 9.55259 16.4121 9.75584 15.9548 9.6034C15.4975 9.45097 15.2943 8.99366 15.4467 8.53636C15.5991 8.07905 16.0565 7.87581 16.5138 8.02824C16.9203 8.18068 17.1743 8.68879 17.0219 9.09529Z" fill="#004D86"/>
<path d="M16.5138 15.1418C16.0565 15.2943 15.5991 15.0402 15.4467 14.6337C15.2943 14.1764 15.5483 13.7191 15.9548 13.5667C16.4121 13.4143 16.8694 13.6683 17.0219 14.0748C17.1743 14.5321 16.9203 14.9894 16.5138 15.1418Z" fill="#004D86"/>
<path d="M20.1214 19.2576C19.8673 19.6133 19.3084 19.7149 18.9527 19.4608C18.597 19.2068 18.4954 18.6987 18.7495 18.2922C19.0035 17.9365 19.5625 17.8348 19.9181 18.0889C20.3246 18.3938 20.4262 18.9019 20.1214 19.2576Z" fill="#004D86"/>
<path d="M24.6944 21.2901C25.1434 21.2901 25.5074 20.9261 25.5074 20.4771C25.5074 20.0281 25.1434 19.6641 24.6944 19.6641C24.2454 19.6641 23.8814 20.0281 23.8814 20.4771C23.8814 20.9261 24.2454 21.2901 24.6944 21.2901Z" fill="#004D86"/>
<path d="M30.3853 19.4608C30.0296 19.7149 29.4707 19.6641 29.2167 19.2576C28.9626 18.9019 29.0134 18.343 29.4199 18.0889C29.7756 17.8349 30.3345 17.8857 30.5886 18.2922C30.8426 18.6478 30.7918 19.156 30.3853 19.4608Z" fill="#004D86"/>
<path d="M33.9421 14.5829C33.7897 15.0402 33.3324 15.2435 32.8751 15.091C32.4178 14.9386 32.2145 14.4813 32.367 14.024C32.5194 13.5667 32.9767 13.3634 33.434 13.5159C33.8405 13.6683 34.0946 14.1764 33.9421 14.5829Z" fill="#004D86"/>
<path d="M33.3832 9.60338C32.9259 9.75582 32.4686 9.50176 32.3162 9.09527C32.1637 8.63796 32.4178 8.18065 32.8243 8.02822C33.2816 7.87578 33.7389 8.12984 33.8913 8.53634C34.0946 8.99364 33.8405 9.50176 33.3832 9.60338Z" fill="#004D86"/>
<path d="M30.5886 4.87793C30.3345 5.23361 29.7756 5.33525 29.4199 5.08119C29.0642 4.82713 28.9626 4.31901 29.2167 3.91252C29.4707 3.55684 30.0296 3.45522 30.3853 3.70927C30.7918 4.01414 30.8426 4.52225 30.5886 4.87793Z" fill="#004D86"/>
</svg>
