<svg width="20" height="20" viewBox="0 0 20 20" fill="none" xmlns="http://www.w3.org/2000/svg">
<path d="M20 5.00009C20 4.56165 19.8767 4.15518 19.6791 3.79757L13.3643 10.8629L19.6106 16.3279C19.8536 15.9423 20 15.4894 20 14.9999V5.00009ZM10 9.58008L18.6916 17.185C18.335 17.3803 17.9333 17.5 17.5001 17.5H2.49998C2.06619 17.5 1.66443 17.3803 1.3092 17.185L10 9.58008ZM12.4232 10.0402L10.4113 8.27871C10.2936 8.1762 10.1471 8.125 10 8.125C9.85287 8.125 9.70633 8.1762 9.58865 8.27871L7.57633 10.0403L1.18163 2.88456C1.56493 2.64409 2.01413 2.50003 2.49994 2.50003H17.5001C17.9858 2.50003 18.4352 2.64409 18.8184 2.88456L12.4232 10.0402ZM0.389439 16.328C0.146493 15.9424 0 15.4894 0 14.9999V5.00005C0 4.5616 0.122751 4.15514 0.321056 3.79753L6.63513 10.8641L0.389439 16.328Z" fill="#004D85"/>
</svg>
