<svg width="19" height="19" viewBox="0 0 19 19" fill="none" xmlns="http://www.w3.org/2000/svg">
<path d="M3.8 8.23333C5.27778 11.1889 7.81111 13.6167 10.7667 15.2L13.0889 12.8778C13.4055 12.5612 13.8278 12.4556 14.1444 12.6667C15.3056 13.0889 16.5722 13.3 17.9444 13.3C18.5778 13.3 19 13.7222 19 14.3556V17.9444C19 18.5778 18.5778 19 17.9444 19C8.02222 19 0 10.9778 0 1.05556C0 0.422222 0.422222 0 1.05556 0H4.75C5.38333 0 5.80556 0.422222 5.80556 1.05556C5.80556 2.32222 6.01667 3.58889 6.43889 4.85556C6.54444 5.17222 6.43889 5.59444 6.22778 5.91111L3.8 8.23333Z" fill="#004D85"/>
</svg>
