<svg width="18" height="15" viewBox="0 0 18 15" fill="none" xmlns="http://www.w3.org/2000/svg">
<path d="M17.7549 6.87528L12.3984 1.22119C12.0716 0.876221 11.5415 0.876221 11.2147 1.22119C10.8878 1.56623 10.8878 2.12556 11.2147 2.4706L15.1424 6.61653H0.836954C0.374754 6.61653 0 7.01211 0 7.49999C0 7.98779 0.374754 8.38344 0.836954 8.38344H15.1424L11.2148 12.5294C10.888 12.8744 10.888 13.4337 11.2148 13.7788C11.3782 13.9512 11.5925 14.0375 11.8067 14.0375C12.0209 14.0375 12.2351 13.9512 12.3985 13.7788L17.7549 8.12469C18.0818 7.77965 18.0818 7.22032 17.7549 6.87528Z" fill="#004D85"/>
</svg>
