<svg width="27" height="27" viewBox="0 0 27 27" fill="none" xmlns="http://www.w3.org/2000/svg">
<path d="M8.75676 20.0676C7.54759 20.0676 6.56757 21.0476 6.56757 22.2567C6.56757 23.4659 7.54759 24.4459 8.75676 24.4459C9.96592 24.4459 10.9459 23.4659 10.9459 22.2567C10.9459 21.0476 9.96592 20.0676 8.75676 20.0676ZM9.48649 22.9865H8.02703V21.527H9.48649V22.9865ZM9.48649 12.7703H24.8108V11.3108H9.48649V12.7703ZM9.48649 6.2027V7.66215H27V6.2027H9.48649ZM20.4324 20.0676C19.2233 20.0676 18.2432 21.0476 18.2432 22.2567C18.2432 23.4659 19.2233 24.4459 20.4324 24.4459C21.6416 24.4459 22.6216 23.4659 22.6216 22.2567C22.6216 21.0476 21.6416 20.0676 20.4324 20.0676ZM21.1622 22.9865H19.7027V21.527H21.1622V22.9865ZM7.2973 14.9595L4.39589 2.55551L0 2.55405V4.01351H3.26262L5.83784 14.9595C5.83784 16.9742 7.4717 18.6081 9.48649 18.6081H23.3514V17.1486H9.48649C8.27732 17.1486 7.2973 16.1686 7.2973 14.9595Z" fill="#004D85"/>
</svg>
