<svg width="180" height="35" viewBox="0 0 180 35" fill="none" xmlns="http://www.w3.org/2000/svg">
<path d="M4.522 15.168C3.32733 15.168 2.436 14.734 1.848 13.866C1.26933 12.998 0.98 11.7473 0.98 10.114C0.98 8.48067 1.26933 7.23 1.848 6.362C2.436 5.494 3.32733 5.06 4.522 5.06C4.97 5.06 5.35733 5.12067 5.684 5.242C6.01067 5.36333 6.29067 5.52667 6.524 5.732C6.75733 5.93733 6.95333 6.17067 7.112 6.432C7.27067 6.684 7.41067 6.94067 7.532 7.202L6.524 7.664C6.44 7.44933 6.342 7.24867 6.23 7.062C6.118 6.866 5.98267 6.698 5.824 6.558C5.67467 6.40867 5.49267 6.292 5.278 6.208C5.07267 6.124 4.82067 6.082 4.522 6.082C3.74733 6.082 3.16867 6.376 2.786 6.964C2.41267 7.552 2.226 8.336 2.226 9.316V10.912C2.226 11.892 2.41267 12.676 2.786 13.264C3.16867 13.852 3.74733 14.146 4.522 14.146C4.82067 14.146 5.07267 14.104 5.278 14.02C5.49267 13.936 5.67467 13.824 5.824 13.684C5.98267 13.5347 6.118 13.3667 6.23 13.18C6.342 12.984 6.44 12.7787 6.524 12.564L7.532 13.026C7.41067 13.2967 7.27067 13.558 7.112 13.81C6.95333 14.062 6.75733 14.2907 6.524 14.496C6.29067 14.7013 6.01067 14.8647 5.684 14.986C5.35733 15.1073 4.97 15.168 4.522 15.168ZM12.5945 15.168C12.0905 15.168 11.6332 15.0793 11.2225 14.902C10.8212 14.7247 10.4759 14.4727 10.1865 14.146C9.90653 13.81 9.69186 13.4133 9.54253 12.956C9.3932 12.4893 9.31853 11.9667 9.31853 11.388C9.31853 10.8187 9.3932 10.3007 9.54253 9.834C9.69186 9.36733 9.90653 8.97067 10.1865 8.644C10.4759 8.308 10.8212 8.05133 11.2225 7.874C11.6332 7.69667 12.0905 7.608 12.5945 7.608C13.0985 7.608 13.5512 7.69667 13.9525 7.874C14.3632 8.05133 14.7085 8.308 14.9885 8.644C15.2779 8.97067 15.4972 9.36733 15.6465 9.834C15.7959 10.3007 15.8705 10.8187 15.8705 11.388C15.8705 11.9667 15.7959 12.4893 15.6465 12.956C15.4972 13.4133 15.2779 13.81 14.9885 14.146C14.7085 14.4727 14.3632 14.7247 13.9525 14.902C13.5512 15.0793 13.0985 15.168 12.5945 15.168ZM12.5945 14.202C13.2199 14.202 13.7239 14.0153 14.1065 13.642C14.4892 13.2687 14.6805 12.69 14.6805 11.906V10.87C14.6805 10.086 14.4892 9.50733 14.1065 9.134C13.7239 8.76067 13.2199 8.574 12.5945 8.574C11.9692 8.574 11.4652 8.76067 11.0825 9.134C10.6999 9.50733 10.5085 10.086 10.5085 10.87V11.906C10.5085 12.69 10.6999 13.2687 11.0825 13.642C11.4652 14.0153 11.9692 14.202 12.5945 14.202ZM20.6951 15.168C19.9484 15.168 19.3277 15.0467 18.8331 14.804C18.3477 14.5613 17.9511 14.216 17.6431 13.768L18.4691 13.096C18.6931 13.4507 18.9871 13.726 19.3511 13.922C19.7151 14.1087 20.1631 14.202 20.6951 14.202C21.3671 14.202 21.8524 14.0947 22.1511 13.88C22.4497 13.6653 22.5991 13.39 22.5991 13.054V12.858C22.5991 12.494 22.4777 12.2187 22.2351 12.032C22.0017 11.836 21.6611 11.738 21.2131 11.738H19.2671V10.8H21.0731C21.9877 10.8 22.4451 10.4593 22.4451 9.778V9.61C22.4451 9.302 22.3144 9.05467 22.0531 8.868C21.8011 8.672 21.3577 8.574 20.7231 8.574C20.1631 8.574 19.7104 8.66733 19.3651 8.854C19.0291 9.04067 18.7537 9.302 18.5391 9.638L17.7551 9.106C18.0817 8.63 18.4784 8.26133 18.9451 8C19.4117 7.73867 20.0231 7.608 20.7791 7.608C21.7404 7.608 22.4544 7.78067 22.9211 8.126C23.3971 8.47133 23.6351 8.94733 23.6351 9.554C23.6351 10.002 23.5184 10.3567 23.2851 10.618C23.0517 10.8793 22.7251 11.0613 22.3051 11.164V11.22C22.7904 11.2947 23.1591 11.4813 23.4111 11.78C23.6631 12.0693 23.7891 12.4427 23.7891 12.9C23.7891 13.6 23.5184 14.1553 22.9771 14.566C22.4451 14.9673 21.6844 15.168 20.6951 15.168ZM25.4916 14.048H26.3036C26.6023 13.572 26.8356 13.012 27.0036 12.368C27.1809 11.7147 27.2696 10.9493 27.2696 10.072V7.776H31.9316V14.048H33.1216V16.96H32.0996V15H26.5136V16.96H25.4916V14.048ZM30.8116 14.048V8.728H28.3616V10.128C28.3616 10.996 28.2916 11.7427 28.1516 12.368C28.0116 12.984 27.8016 13.544 27.5216 14.048H30.8116ZM40.5081 15C40.0695 15 39.7568 14.888 39.5701 14.664C39.3835 14.44 39.2668 14.16 39.2201 13.824H39.1501C38.9915 14.244 38.7348 14.5753 38.3801 14.818C38.0348 15.0513 37.5681 15.168 36.9801 15.168C36.2241 15.168 35.6221 14.972 35.1741 14.58C34.7261 14.188 34.5021 13.6513 34.5021 12.97C34.5021 12.298 34.7448 11.78 35.2301 11.416C35.7248 11.052 36.5181 10.87 37.6101 10.87H39.1501V10.156C39.1501 9.624 39.0008 9.22733 38.7021 8.966C38.4035 8.69533 37.9788 8.56 37.4281 8.56C36.9428 8.56 36.5461 8.658 36.2381 8.854C35.9301 9.04067 35.6828 9.29733 35.4961 9.624L34.7401 9.064C34.8335 8.87733 34.9595 8.69533 35.1181 8.518C35.2768 8.34067 35.4728 8.18667 35.7061 8.056C35.9395 7.916 36.2055 7.80867 36.5041 7.734C36.8028 7.65 37.1341 7.608 37.4981 7.608C38.3475 7.608 39.0195 7.82267 39.5141 8.252C40.0181 8.68133 40.2701 9.27867 40.2701 10.044V14.02H41.2781V15H40.5081ZM37.1761 14.23C37.4655 14.23 37.7268 14.1973 37.9601 14.132C38.2028 14.0573 38.4128 13.964 38.5901 13.852C38.7675 13.7307 38.9028 13.5907 38.9961 13.432C39.0988 13.264 39.1501 13.0867 39.1501 12.9V11.71H37.6101C36.9381 11.71 36.4481 11.8033 36.1401 11.99C35.8321 12.1767 35.6781 12.4473 35.6781 12.802V13.096C35.6781 13.4693 35.8088 13.754 36.0701 13.95C36.3408 14.1367 36.7095 14.23 37.1761 14.23ZM43.3027 7.776H44.4227V10.8H47.9227V7.776H49.0427V15H47.9227V11.752H44.4227V15H43.3027V7.776ZM51.6972 7.776H52.8172V11.458L52.7052 13.306H52.7612L56.3872 7.776H57.4372V15H56.3172V11.318L56.4292 9.47H56.3732L52.7472 15H51.6972V7.776ZM63.0877 15.168C62.5651 15.168 62.0937 15.0793 61.6737 14.902C61.2631 14.7247 60.9084 14.4727 60.6097 14.146C60.3204 13.81 60.0964 13.4133 59.9377 12.956C59.7791 12.4893 59.6997 11.9713 59.6997 11.402C59.6997 10.8233 59.7791 10.3007 59.9377 9.834C60.1057 9.36733 60.3344 8.97067 60.6237 8.644C60.9131 8.308 61.2584 8.05133 61.6597 7.874C62.0704 7.69667 62.5231 7.608 63.0177 7.608C63.5031 7.608 63.9417 7.69667 64.3337 7.874C64.7351 8.05133 65.0757 8.29867 65.3557 8.616C65.6357 8.924 65.8504 9.29267 65.9997 9.722C66.1491 10.1513 66.2237 10.6227 66.2237 11.136V11.668H60.8757V12.004C60.8757 12.3213 60.9271 12.6153 61.0297 12.886C61.1324 13.1567 61.2771 13.39 61.4637 13.586C61.6597 13.782 61.8931 13.936 62.1637 14.048C62.4437 14.1507 62.7517 14.202 63.0877 14.202C63.5731 14.202 63.9931 14.09 64.3477 13.866C64.7024 13.642 64.9731 13.334 65.1597 12.942L65.9857 13.502C65.7711 13.9873 65.4117 14.3887 64.9077 14.706C64.4131 15.014 63.8064 15.168 63.0877 15.168ZM63.0177 8.532C62.7097 8.532 62.4251 8.588 62.1637 8.7C61.9024 8.812 61.6737 8.966 61.4777 9.162C61.2911 9.358 61.1417 9.59133 61.0297 9.862C60.9271 10.1233 60.8757 10.4127 60.8757 10.73V10.828H65.0197V10.674C65.0197 10.3567 64.9684 10.0673 64.8657 9.806C64.7724 9.54467 64.6371 9.32067 64.4597 9.134C64.2917 8.938 64.0817 8.78867 63.8297 8.686C63.5871 8.58333 63.3164 8.532 63.0177 8.532ZM4.452 33.168C3.92933 33.168 3.46267 33.0793 3.052 32.902C2.65067 32.7153 2.31 32.4587 2.03 32.132C1.75 31.8053 1.53533 31.4087 1.386 30.942C1.246 30.4753 1.176 29.9573 1.176 29.388C1.176 28.8187 1.25067 28.3007 1.4 27.834C1.54933 27.3673 1.764 26.9707 2.044 26.644C2.324 26.308 2.66467 26.0513 3.066 25.874C3.46733 25.6967 3.92467 25.608 4.438 25.608C5.138 25.608 5.70733 25.762 6.146 26.07C6.58467 26.378 6.90667 26.7793 7.112 27.274L6.216 27.75C6.08533 27.3767 5.866 27.0873 5.558 26.882C5.25933 26.6767 4.886 26.574 4.438 26.574C4.11133 26.574 3.81733 26.63 3.556 26.742C3.304 26.8447 3.08933 26.994 2.912 27.19C2.73467 27.386 2.59933 27.6193 2.506 27.89C2.422 28.1607 2.38 28.4547 2.38 28.772V30.004C2.38 30.3213 2.422 30.6153 2.506 30.886C2.59933 31.1567 2.73467 31.39 2.912 31.586C3.08933 31.782 3.30867 31.936 3.57 32.048C3.83133 32.1507 4.13 32.202 4.466 32.202C4.95133 32.202 5.35267 32.09 5.67 31.866C5.98733 31.642 6.23933 31.334 6.426 30.942L7.224 31.488C7.00933 31.9733 6.67333 32.3747 6.216 32.692C5.768 33.0093 5.18 33.168 4.452 33.168ZM15.3245 33C14.8859 33 14.5732 32.888 14.3865 32.664C14.1999 32.44 14.0832 32.16 14.0365 31.824H13.9665C13.8079 32.244 13.5512 32.5753 13.1965 32.818C12.8512 33.0513 12.3845 33.168 11.7965 33.168C11.0405 33.168 10.4385 32.972 9.99053 32.58C9.54253 32.188 9.31853 31.6513 9.31853 30.97C9.31853 30.298 9.5612 29.78 10.0465 29.416C10.5412 29.052 11.3345 28.87 12.4265 28.87H13.9665V28.156C13.9665 27.624 13.8172 27.2273 13.5185 26.966C13.2199 26.6953 12.7952 26.56 12.2445 26.56C11.7592 26.56 11.3625 26.658 11.0545 26.854C10.7465 27.0407 10.4992 27.2973 10.3125 27.624L9.55653 27.064C9.64986 26.8773 9.77586 26.6953 9.93453 26.518C10.0932 26.3407 10.2892 26.1867 10.5225 26.056C10.7559 25.916 11.0219 25.8087 11.3205 25.734C11.6192 25.65 11.9505 25.608 12.3145 25.608C13.1639 25.608 13.8359 25.8227 14.3305 26.252C14.8345 26.6813 15.0865 27.2787 15.0865 28.044V32.02H16.0945V33H15.3245ZM11.9925 32.23C12.2819 32.23 12.5432 32.1973 12.7765 32.132C13.0192 32.0573 13.2292 31.964 13.4065 31.852C13.5839 31.7307 13.7192 31.5907 13.8125 31.432C13.9152 31.264 13.9665 31.0867 13.9665 30.9V29.71H12.4265C11.7545 29.71 11.2645 29.8033 10.9565 29.99C10.6485 30.1767 10.4945 30.4473 10.4945 30.802V31.096C10.4945 31.4693 10.6252 31.754 10.8865 31.95C11.1572 32.1367 11.5259 32.23 11.9925 32.23ZM18.1191 25.776H19.2391V29.458L19.1271 31.306H19.1831L22.8091 25.776H23.8591V33H22.7391V29.318L22.8511 27.47H22.7951L19.1691 33H18.1191V25.776ZM20.9471 24.67C20.4711 24.67 20.0837 24.5673 19.7851 24.362C19.4864 24.1473 19.2251 23.816 19.0011 23.368L18.6091 22.57L19.6171 22.248L20.1771 23.732C20.2797 23.7693 20.4057 23.7927 20.5551 23.802C20.7044 23.8113 20.8351 23.816 20.9471 23.816C21.0591 23.816 21.1897 23.8113 21.3391 23.802C21.4884 23.7927 21.6144 23.7693 21.7171 23.732L22.2771 22.248L23.2851 22.57L22.8931 23.368C22.6691 23.816 22.4077 24.1473 22.1091 24.362C21.8104 24.5673 21.4231 24.67 20.9471 24.67ZM28.8236 26.728H26.1636V25.776H32.6036V26.728H29.9436V33H28.8236V26.728ZM40.5081 33C40.0695 33 39.7568 32.888 39.5701 32.664C39.3835 32.44 39.2668 32.16 39.2201 31.824H39.1501C38.9915 32.244 38.7348 32.5753 38.3801 32.818C38.0348 33.0513 37.5681 33.168 36.9801 33.168C36.2241 33.168 35.6221 32.972 35.1741 32.58C34.7261 32.188 34.5021 31.6513 34.5021 30.97C34.5021 30.298 34.7448 29.78 35.2301 29.416C35.7248 29.052 36.5181 28.87 37.6101 28.87H39.1501V28.156C39.1501 27.624 39.0008 27.2273 38.7021 26.966C38.4035 26.6953 37.9788 26.56 37.4281 26.56C36.9428 26.56 36.5461 26.658 36.2381 26.854C35.9301 27.0407 35.6828 27.2973 35.4961 27.624L34.7401 27.064C34.8335 26.8773 34.9595 26.6953 35.1181 26.518C35.2768 26.3407 35.4728 26.1867 35.7061 26.056C35.9395 25.916 36.2055 25.8087 36.5041 25.734C36.8028 25.65 37.1341 25.608 37.4981 25.608C38.3475 25.608 39.0195 25.8227 39.5141 26.252C40.0181 26.6813 40.2701 27.2787 40.2701 28.044V32.02H41.2781V33H40.5081ZM37.1761 32.23C37.4655 32.23 37.7268 32.1973 37.9601 32.132C38.2028 32.0573 38.4128 31.964 38.5901 31.852C38.7675 31.7307 38.9028 31.5907 38.9961 31.432C39.0988 31.264 39.1501 31.0867 39.1501 30.9V29.71H37.6101C36.9381 29.71 36.4481 29.8033 36.1401 29.99C35.8321 30.1767 35.6781 30.4473 35.6781 30.802V31.096C35.6781 31.4693 35.8088 31.754 36.0701 31.95C36.3408 32.1367 36.7095 32.23 37.1761 32.23ZM50.3672 29.262V28.226H58.7672V29.262H50.3672Z" fill="white"/>
<path d="M120.737 15.5845V7.88037H123.942C126.315 7.88037 128.064 9.31167 128.064 11.7114C128.064 14.111 126.357 15.5424 123.984 15.5424H120.737V15.5845ZM126.066 11.7535C126.066 10.5747 125.358 9.64847 123.984 9.64847H122.735V13.8584H123.984C125.275 13.8584 126.066 12.8901 126.066 11.7535Z" fill="white"/>
<path d="M128.813 11.7537C128.813 9.39609 130.562 7.79639 132.893 7.79639C135.224 7.79639 136.931 9.43819 136.931 11.7537C136.931 14.0691 135.183 15.711 132.893 15.711C130.52 15.711 128.813 14.0691 128.813 11.7537ZM134.933 11.7537C134.933 10.4907 134.142 9.52239 132.893 9.52239C131.644 9.52239 130.812 10.4907 130.812 11.7537C130.812 13.0166 131.602 13.9849 132.893 13.9849C134.1 13.9849 134.933 12.9745 134.933 11.7537Z" fill="white"/>
<path d="M142.343 15.5845L141.052 13.0164H140.053V15.5845H138.097V7.88037H141.885C143.55 7.88037 144.508 9.01697 144.508 10.4484C144.508 11.7956 143.717 12.5112 143.009 12.7638L144.549 15.5845H142.343ZM142.551 10.4484C142.551 9.94317 142.135 9.64847 141.594 9.64847H140.053V11.2904H141.594C142.093 11.2904 142.551 10.9957 142.551 10.4484Z" fill="white"/>
<path d="M145.299 11.7537C145.299 9.39609 147.047 7.79639 149.378 7.79639C151.71 7.79639 153.416 9.43819 153.416 11.7537C153.416 14.0691 151.668 15.711 149.378 15.711C147.047 15.711 145.299 14.0691 145.299 11.7537ZM151.46 11.7537C151.46 10.4907 150.669 9.52239 149.42 9.52239C148.171 9.52239 147.338 10.4907 147.338 11.7537C147.338 13.0166 148.129 13.9849 149.42 13.9849C150.627 13.9849 151.46 12.9745 151.46 11.7537Z" fill="white"/>
<path d="M159.702 15.5845V12.5112H156.539V15.5845H154.582V7.88037H156.539V10.7852H159.702V7.92247H161.659V15.5845H159.702Z" fill="white"/>
<path d="M162.825 11.7537C162.825 9.39609 164.573 7.79639 166.904 7.79639C169.236 7.79639 170.943 9.43819 170.943 11.7537C170.943 14.0691 169.194 15.711 166.904 15.711C164.573 15.711 162.825 14.0691 162.825 11.7537ZM168.944 11.7537C168.944 10.4907 168.153 9.52239 166.863 9.52239C165.614 9.52239 164.781 10.4907 164.781 11.7537C164.781 13.0166 165.572 13.9849 166.863 13.9849C168.153 13.9849 168.944 12.9745 168.944 11.7537Z" fill="white"/>
<path d="M173.857 15.5845L170.984 7.88037H173.191L175.064 13.4374L176.937 7.88037H179.144L176.271 15.5424H173.857V15.5845Z" fill="white"/>
<path d="M120.737 27.078V19.416H123.942C126.315 19.416 128.064 20.8474 128.064 23.247C128.064 25.6466 126.357 27.078 123.984 27.078H120.737ZM126.066 23.247C126.066 22.0682 125.358 21.1421 123.984 21.1421H122.735V25.3519H123.984C125.275 25.3519 126.066 24.3837 126.066 23.247Z" fill="white"/>
<path d="M129.229 27.078V19.416H134.766V21.1421H131.144V22.3208H134.683V24.0469H131.144V25.3519H134.766V27.078H129.229Z" fill="white"/>
<path d="M135.64 26.0253L136.681 24.5518C137.222 25.0991 138.055 25.5622 139.096 25.5622C139.762 25.5622 140.178 25.3096 140.178 24.9307C140.178 23.8782 135.89 24.7202 135.89 21.7733C135.89 20.4682 136.972 19.3315 138.929 19.3315C140.136 19.3315 141.219 19.7104 142.01 20.384L140.927 21.8154C140.303 21.2681 139.47 21.0155 138.721 21.0155C138.138 21.0155 137.888 21.226 137.888 21.5628C137.888 22.5311 142.176 21.8154 142.176 24.6781C142.176 26.2357 141.052 27.2461 139.012 27.2461C137.472 27.2461 136.39 26.7409 135.64 26.0253Z" fill="white"/>
<path d="M143.3 27.078V19.416H145.257V27.078H143.3Z" fill="white"/>
<path d="M146.423 23.2467C146.423 20.805 148.254 19.2896 150.544 19.2896C152.251 19.2896 153.25 20.2156 153.791 21.1418L152.168 21.9838C151.876 21.4786 151.293 21.0155 150.544 21.0155C149.295 21.0155 148.421 21.9839 148.421 23.2467C148.421 24.5097 149.295 25.4781 150.544 25.4781C151.085 25.4781 151.668 25.2675 151.959 25.0149V24.4255H150.253V22.6996H153.916V25.7728C153.083 26.699 152.001 27.2882 150.544 27.2882C148.296 27.2462 146.423 25.6885 146.423 23.2467Z" fill="white"/>
<path d="M160.452 27.078L157.246 22.6576V27.1201H155.29V19.416H157.288L160.369 23.6259V19.416H162.325V27.078H160.452Z" fill="white"/>
<path d="M92.8867 0.89209H79.8982V34.0239H92.9699C103.96 34.0239 111.037 27.4986 111.037 17.4369C110.996 7.37529 103.919 0.89209 92.8867 0.89209ZM92.5536 27.3723H86.7671V8.00679H92.6369C99.4226 8.00679 104.168 10.7011 104.168 17.479C104.168 22.9098 99.8388 27.3723 92.5536 27.3723Z" fill="white"/>
<path d="M93.8859 13.522H92.3872V21.3945H93.8859C96.8416 21.3945 98.59 19.5842 98.59 17.353C98.5484 14.6165 96.6334 13.522 93.8859 13.522Z" fill="white"/>
</svg>
