<svg width="28" height="28" viewBox="0 0 28 28" fill="none" xmlns="http://www.w3.org/2000/svg">
<g clip-path="url(#clip0)">
<path d="M14.0009 0C6.26953 0 0.000976562 6.26857 0.000976562 14C0.000976562 21.7313 6.26953 28 14.0009 28C21.7324 28 28.0008 21.7313 28.0008 14C28.0009 6.26857 21.7324 0 14.0009 0ZM21.3939 20.4275L20.2729 21.5487C20.0728 21.7486 19.4868 21.8733 19.468 21.8733C15.9218 21.9042 12.5073 20.5113 9.99859 18.0023C7.48299 15.4853 6.08845 12.0586 6.1259 8.50049C6.1259 8.49887 6.25424 7.92966 6.45419 7.73161L7.57509 6.61054C7.98526 6.19845 8.77319 6.01223 9.32515 6.1969L9.56094 6.27555C10.1113 6.46004 10.6891 7.06855 10.8412 7.62918L11.405 9.69866C11.5571 10.2609 11.352 11.0608 10.9419 11.4709L10.1935 12.2195C10.9283 14.9399 13.0628 17.0748 15.7837 17.8115L16.5318 17.0627C16.9439 16.6506 17.7435 16.4457 18.3045 16.5976L20.3737 17.1634C20.9345 17.3175 21.5429 17.8917 21.7273 18.4419L21.8059 18.6811C21.9888 19.2315 21.804 20.0192 21.3939 20.4275Z" fill="#BBD3E3"/>
</g>
<defs>
<clipPath id="clip0">
<rect width="28" height="28" fill="white"/>
</clipPath>
</defs>
</svg>
