<svg width="28" height="28" viewBox="0 0 28 28" fill="none" xmlns="http://www.w3.org/2000/svg">
<g clip-path="url(#clip0)">
<path d="M14.0007 0C6.26896 0 0.00100708 6.26814 0.00100708 13.9999C0.00100708 21.7314 6.26896 28 14.0007 28C21.7324 28 28.0008 21.7314 28.0008 13.9999C28.0008 6.26795 21.7324 0 14.0007 0ZM14.0433 20.6048V20.6046H13.9578H7.97772C7.97772 16.2313 11.8186 16.2323 12.6709 15.0888L12.7685 14.5673C11.571 13.9605 10.7257 12.4974 10.7257 10.7862C10.7257 8.53178 12.1921 6.70392 14.0007 6.70392C15.8092 6.70392 17.2757 8.53178 17.2757 10.7862C17.2757 12.4828 16.4454 13.9368 15.2639 14.5532L15.3749 15.1458C16.31 16.2339 20.0232 16.3048 20.0232 20.6048H14.0433Z" fill="#BBD3E3"/>
</g>
<defs>
<clipPath id="clip0">
<rect width="28" height="28" fill="white"/>
</clipPath>
</defs>
</svg>
