<svg width="28" height="28" viewBox="0 0 28 28" fill="none" xmlns="http://www.w3.org/2000/svg">
<g clip-path="url(#clip0)">
<path d="M13.8137 0.00115026C6.08238 0.104629 -0.10075 6.45667 0.00211968 14.1883C0.105598 21.9166 6.45703 28.1016 14.1881 27.9987C21.9179 27.8946 28.1022 21.5426 27.9994 13.8115C27.8959 6.08263 21.5442 -0.102024 13.8137 0.00115026ZM13.7723 22.5217L13.695 22.5205C12.5044 22.4852 11.665 21.608 11.6988 20.4351C11.732 19.2822 12.5918 18.4452 13.7431 18.4452L13.8122 18.4465C15.036 18.4827 15.8659 19.351 15.8316 20.5577C15.7975 21.7139 14.9511 22.5217 13.7723 22.5217ZM18.7804 12.582C18.5004 12.9798 17.8847 13.4737 17.1089 14.0782L16.2546 14.668C15.7856 15.0326 15.5026 15.3756 15.3963 15.7131C15.3126 15.9788 15.2716 16.0491 15.2642 16.5896L15.263 16.7269H12.001L12.0105 16.4508C12.0503 15.3162 12.0783 14.6488 12.5486 14.0973C13.2863 13.2312 14.9136 12.1833 14.9827 12.1388C15.2159 11.9632 15.4125 11.7633 15.5589 11.5496C15.9012 11.0776 16.0528 10.706 16.0528 10.3408C16.0528 9.83402 15.9025 9.36533 15.6051 8.94806C15.3193 8.54541 14.7764 8.3415 13.9912 8.3415C13.2123 8.3415 12.6791 8.58863 12.3602 9.09567C12.0321 9.61702 11.8662 10.1645 11.8662 10.7239V10.863H8.50286L8.50894 10.7178C8.59568 8.65772 9.33099 7.17433 10.6936 6.30876C11.5497 5.75759 12.6149 5.47819 13.8579 5.47819C15.4849 5.47819 16.8584 5.87354 17.9398 6.65328C19.0354 7.44337 19.5912 8.62667 19.5912 10.1703C19.5912 11.0338 19.3185 11.8448 18.7804 12.582Z" fill="#BBD3E3"/>
</g>
<defs>
<clipPath id="clip0">
<rect width="28" height="28" fill="white"/>
</clipPath>
</defs>
</svg>
