<svg width="16" height="16" viewBox="0 0 16 16" fill="none" xmlns="http://www.w3.org/2000/svg">
<path d="M1.26533 3.06192L7.02848 7.62695C7.28981 7.83372 7.64994 7.92562 7.99972 7.90839C8.34894 7.92562 8.70906 7.83429 8.9704 7.62695L14.7335 3.06192C15.1953 2.69835 15.0908 2.40025 14.5049 2.40025H8.0003H1.49565C0.909226 2.40025 0.804692 2.69835 1.26533 3.06192Z" fill="#004D85"/>
<path d="M15.1499 4.0889L8.85207 8.87046C8.61658 9.04736 8.30815 9.13352 8.00086 9.1295C7.693 9.13352 7.38457 9.04679 7.14908 8.87046L0.850056 4.0889C0.382525 3.73451 0 3.92463 0 4.51105V12.3563C0 12.9427 0.480167 13.4229 1.06659 13.4229H7.99971H14.9334C15.5198 13.4229 16 12.9427 16 12.3563V4.51105C16 3.92463 15.6175 3.73451 15.1499 4.0889Z" fill="#004D85"/>
</svg>
