<svg width="21" height="21" viewBox="0 0 21 21" fill="none" xmlns="http://www.w3.org/2000/svg">
<path d="M20.3291 19.1277L15.331 13.9295C16.6161 12.4018 17.3202 10.4797 17.3202 8.47874C17.3202 3.80364 13.5166 0 8.84147 0C4.16637 0 0.362732 3.80364 0.362732 8.47874C0.362732 13.1538 4.16637 16.9575 8.84147 16.9575C10.5966 16.9575 12.2691 16.4281 13.6991 15.4232L18.7351 20.6609C18.9456 20.8795 19.2287 21 19.5321 21C19.8192 21 20.0917 20.8905 20.2985 20.6914C20.7379 20.2686 20.7519 19.5675 20.3291 19.1277ZM8.84147 2.21185C12.2971 2.21185 15.1084 5.0231 15.1084 8.47874C15.1084 11.9344 12.2971 14.7456 8.84147 14.7456C5.38583 14.7456 2.57458 11.9344 2.57458 8.47874C2.57458 5.0231 5.38583 2.21185 8.84147 2.21185Z" fill="#004D85"/>
</svg>
