<svg width="40" height="40" viewBox="0 0 40 40" fill="none" xmlns="http://www.w3.org/2000/svg">
<g clip-path="url(#clip0)">
<path d="M30.8334 3.33336H26.3484L25.8317 2.30336C25.1216 0.881641 23.6934 0 22.105 0H17.8934C16.305 0 14.8784 0.881641 14.1667 2.30336L13.6517 3.33336H9.16672C6.86836 3.33336 5 5.20336 5 7.5V9.16664C5 9.62664 5.37336 10 5.83336 10H34.1667C34.6267 10 35.0001 9.62664 35.0001 9.16664V7.5C35 5.20336 33.1316 3.33336 30.8334 3.33336ZM33.3334 8.33336H6.66664V7.5C6.66664 6.12164 7.78828 5 9.16664 5H14.1666C14.4816 5 14.77 4.82164 14.9116 4.54L15.6583 3.04836C16.0833 2.19672 16.9399 1.66672 17.8949 1.66672H22.1066C23.0599 1.66672 23.9166 2.19672 24.3432 3.04836L25.0882 4.54C25.2298 4.82164 25.5182 5 25.8332 5H30.8332C32.2116 5 33.3332 6.12164 33.3332 7.5V8.33336H33.3334Z" fill="#004D85"/>
<path d="M32.5004 8.33336H7.50035C7.04035 8.33336 6.66699 8.70672 6.66699 9.16672V34.1667C6.66699 37.3834 9.28371 40 12.5004 40H27.5004C30.717 40 33.3337 37.3834 33.3337 34.1666V9.16664C33.3337 8.70664 32.9604 8.33336 32.5004 8.33336ZM31.667 34.1666C31.667 36.4633 29.7986 38.3333 27.5004 38.3333H12.5004C10.202 38.3333 8.33371 36.4633 8.33371 34.1666V10H31.6671V34.1666H31.667Z" fill="#004D85"/>
<path d="M12.5004 13.3334C12.0404 13.3334 11.667 13.7067 11.667 14.1667V34.1667C11.667 34.6267 12.0404 35.0001 12.5004 35.0001C12.9604 35.0001 13.3337 34.6267 13.3337 34.1667V14.1667C13.3337 13.7066 12.9604 13.3334 12.5004 13.3334Z" fill="#004D85"/>
<path d="M17.5004 13.3334C17.0404 13.3334 16.667 13.7067 16.667 14.1667V34.1667C16.667 34.6267 17.0404 35.0001 17.5004 35.0001C17.9604 35.0001 18.3337 34.6267 18.3337 34.1667V14.1667C18.3337 13.7066 17.9604 13.3334 17.5004 13.3334Z" fill="#004D85"/>
<path d="M22.5004 13.3334C22.0404 13.3334 21.667 13.7067 21.667 14.1667V34.1667C21.667 34.6267 22.0404 35.0001 22.5004 35.0001C22.9604 35.0001 23.3337 34.6267 23.3337 34.1667V14.1667C23.3337 13.7066 22.9604 13.3334 22.5004 13.3334Z" fill="#004D85"/>
<path d="M27.5004 13.3334C27.0404 13.3334 26.667 13.7067 26.667 14.1667V34.1667C26.667 34.6267 27.0404 35.0001 27.5004 35.0001C27.9604 35.0001 28.3337 34.6267 28.3337 34.1667V14.1667C28.3337 13.7066 27.9604 13.3334 27.5004 13.3334Z" fill="#004D85"/>
</g>
<defs>
<clipPath id="clip0">
<rect width="40" height="40" fill="white"/>
</clipPath>
</defs>
</svg>
