<svg width="28" height="28" fill="none" xmlns="http://www.w3.org/2000/svg"><g clip-path="url(#clip0)"><path d="M13.814.001C6.082.105-.101 6.457.002 14.188c.104 7.729 6.455 13.914 14.186 13.81 7.73-.103 13.914-6.455 13.811-14.187C27.896 6.084 21.544-.101 13.814.002zm-.042 22.52h-.077c-1.19-.036-2.03-.913-1.996-2.086.033-1.153.893-1.99 2.044-1.99l.07.002c1.223.036 2.053.904 2.019 2.11-.035 1.157-.88 1.965-2.06 1.965zm5.008-9.939c-.28.398-.895.892-1.671 1.496l-.854.59c-.47.365-.752.708-.859 1.045-.083.266-.124.336-.132.877l-.001.137h-3.262l.01-.276c.04-1.135.067-1.802.538-2.354.737-.866 2.365-1.914 2.434-1.958.233-.176.43-.376.576-.59.342-.471.494-.843.494-1.208 0-.507-.15-.976-.448-1.393-.286-.403-.829-.607-1.614-.607-.779 0-1.312.248-1.63.755-.329.521-.495 1.069-.495 1.628v.139H8.503l.006-.145c.087-2.06.822-3.544 2.185-4.41.856-.55 1.92-.83 3.164-.83 1.627 0 3 .396 4.082 1.175 1.095.79 1.651 1.974 1.651 3.517 0 .864-.273 1.675-.81 2.412z" fill="#BBD3E3"/></g><defs><clipPath id="clip0"><path fill="#fff" d="M0 0h28v28H0z"/></clipPath></defs></svg>