<svg width="28" height="28" fill="none" xmlns="http://www.w3.org/2000/svg"><g clip-path="url(#clip0)"><path d="M14 0C6.27 0 .002 6.268.002 14c0 7.731 6.268 14 14 14 7.731 0 14-6.269 14-14 0-7.732-6.269-14-14-14zm.043 20.605H7.978c0-4.374 3.84-4.373 4.693-5.516l.098-.522c-1.198-.607-2.043-2.07-2.043-3.78 0-2.255 1.466-4.083 3.275-4.083 1.808 0 3.275 1.828 3.275 4.082 0 1.697-.83 3.15-2.012 3.767l.11.593c.936 1.088 4.65 1.159 4.65 5.459h-5.98z" fill="#BBD3E3"/></g><defs><clipPath id="clip0"><path fill="#fff" d="M0 0h28v28H0z"/></clipPath></defs></svg>