<svg width="144" height="24" fill="none" xmlns="http://www.w3.org/2000/svg"><path d="M7.825 8.587H3.099v9.045H0V5.69h10.975v11.94h-3.1V8.588h-.05zM39.887 5.69H50v9.045h2.032l-.61 5.488h-2.896l.203-2.591h-8.18l-.051 2.591H37.6v-5.488h1.067c.508-.05.863-.406.863-1.067l.356-7.977zm2.388 9.045h4.573V8.587h-3.963l-.203 4.065c-.051.762-.153 1.474-.407 2.083zm28.201 2.897H53.657V5.69h3.1v9.044h3.709V5.691h3.1v9.044h3.709V5.691h3.099v11.94h.102zm6.808 0h-3.709V5.69h3.1v8.079h.152l4.827-8.08h3.71v11.942h-3.1v-8.08h-.152l-4.828 8.08zm19.055-9.045h-4.726v9.045h-3.1V5.69H99.49v11.94h-3.1V8.588h-.05zm14.532 4.37h-5.183v4.675h-3.099V5.69h3.099v4.37h5.183V5.69h3.099v11.94h-3.099v-4.674zm9.959 4.675h-3.709V5.69h3.099v8.079h.153l4.827-8.08h3.709v11.942h-3.1v-8.08h-.203l-4.776 8.08zm18.394-6.504v.355L144 16.971v.66h-3.455l-4.167-4.979h-1.219v4.98h-3.1V5.69h3.1v4.42h1.168l3.862-4.42h3.252v.66l-4.217 4.777zM15.447 8.587c.152-.457.61-.66 1.067-.508.457.152.66.61.508 1.067-.153.457-.61.66-1.067.508a.851.851 0 0 1-.508-1.067zm1.575 5.488a.851.851 0 0 1-.508 1.067.851.851 0 0 1-1.067-.508.851.851 0 0 1 .508-1.067.851.851 0 0 1 1.067.508zM18.8 4.878c-.254-.356-.203-.915.203-1.169.356-.254.915-.203 1.17.203.253.356.202.915-.204 1.17-.407.253-.915.202-1.169-.204zm1.321 14.38c-.254.355-.813.457-1.168.203-.356-.254-.458-.762-.203-1.169.253-.356.813-.457 1.168-.203.407.305.508.813.203 1.169zm4.573-15.752a.813.813 0 1 0 0-1.626.813.813 0 0 0 0 1.626zm0 17.784a.813.813 0 1 0 0-1.626.813.813 0 0 0 0 1.626zm0-17.225a7.503 7.503 0 0 0-7.52 7.52 7.503 7.503 0 0 0 7.52 7.52 7.503 7.503 0 0 0 7.52-7.52c0-4.116-3.353-7.52-7.52-7.52zm0 13.668a6.137 6.137 0 0 1-6.148-6.148 6.137 6.137 0 0 1 6.148-6.148 6.137 6.137 0 0 1 6.149 6.148 6.137 6.137 0 0 1-6.149 6.148zm4.523-13.82c.254-.356.813-.458 1.168-.204.356.254.458.762.204 1.169-.255.356-.813.457-1.17.203-.355-.305-.456-.813-.202-1.168zm1.372 14.379c.254.356.203.915-.204 1.169-.355.254-.914.203-1.168-.203-.254-.356-.204-.915.203-1.17.406-.253.914-.152 1.169.204z" fill="#004D86"/><path d="M24.694 0C18.292 0 13.11 5.183 13.11 11.585c0 6.402 5.183 11.585 11.585 11.585 6.403 0 11.585-5.183 11.585-11.585C36.28 5.183 31.097 0 24.694 0zm0 21.798c-5.64 0-10.213-4.573-10.213-10.213 0-5.64 4.573-10.213 10.213-10.213 5.64 0 10.214 4.573 10.214 10.213 0 5.64-4.574 10.213-10.214 10.213z" fill="#004D86"/><path d="M32.367 9.095a.851.851 0 0 1 .508-1.067.851.851 0 0 1 1.067.508.851.851 0 0 1-.508 1.067c-.457.153-.915-.05-1.067-.508zm1.575 5.488c-.152.457-.61.66-1.067.508-.457-.152-.66-.61-.508-1.067.152-.457.61-.66 1.067-.508.407.152.66.66.508 1.067zM15.447 8.587c.152-.457.61-.66 1.067-.508.457.152.66.61.508 1.067-.153.457-.61.66-1.067.508a.851.851 0 0 1-.508-1.067zm1.575 5.488a.851.851 0 0 1-.508 1.067.851.851 0 0 1-1.067-.508.851.851 0 0 1 .508-1.067.851.851 0 0 1 1.067.508zM18.8 4.878c-.254-.356-.203-.915.203-1.169.356-.254.915-.203 1.17.203.253.356.202.915-.204 1.17-.407.253-.915.202-1.169-.204zm1.321 14.38c-.254.355-.813.457-1.168.203-.356-.254-.458-.762-.203-1.169.253-.356.813-.457 1.168-.203.407.305.508.813.203 1.169zm4.573-15.752a.813.813 0 1 0 0-1.626.813.813 0 0 0 0 1.626zm0 17.784a.813.813 0 1 0 0-1.626.813.813 0 0 0 0 1.626zm0-17.225a7.503 7.503 0 0 0-7.52 7.52 7.503 7.503 0 0 0 7.52 7.52 7.503 7.503 0 0 0 7.52-7.52c0-4.116-3.353-7.52-7.52-7.52zm0 13.668a6.137 6.137 0 0 1-6.148-6.148 6.137 6.137 0 0 1 6.148-6.148 6.137 6.137 0 0 1 6.149 6.148 6.137 6.137 0 0 1-6.149 6.148zm4.523-13.82c.254-.356.813-.458 1.168-.204.356.254.458.762.204 1.169-.255.356-.813.457-1.17.203-.355-.305-.456-.813-.202-1.168zm1.372 14.379c.254.356.203.915-.204 1.169-.355.254-.914.203-1.168-.203-.254-.356-.204-.915.203-1.17.406-.253.914-.152 1.169.204z" fill="#004D86"/><path d="M32.367 9.095a.851.851 0 0 1 .508-1.067.851.851 0 0 1 1.067.508.851.851 0 0 1-.508 1.067c-.457.153-.915-.05-1.067-.508zm1.575 5.488c-.152.457-.61.66-1.067.508-.457-.152-.66-.61-.508-1.067.152-.457.61-.66 1.067-.508.407.152.66.66.508 1.067zM15.447 8.587c.152-.457.61-.66 1.067-.508.457.152.66.61.508 1.067-.153.457-.61.66-1.067.508a.851.851 0 0 1-.508-1.067zm1.575 5.488a.851.851 0 0 1-.508 1.067.851.851 0 0 1-1.067-.508.851.851 0 0 1 .508-1.067.851.851 0 0 1 1.067.508zM18.8 4.878c-.254-.356-.203-.915.203-1.169.356-.254.915-.203 1.17.203.253.356.202.915-.204 1.17-.407.253-.915.202-1.169-.204zm1.321 14.38c-.254.355-.813.457-1.168.203-.356-.254-.458-.762-.203-1.169.253-.356.813-.457 1.168-.203.407.305.508.813.203 1.169zm4.573-15.752a.813.813 0 1 0 0-1.626.813.813 0 0 0 0 1.626zm0 17.784a.813.813 0 1 0 0-1.626.813.813 0 0 0 0 1.626zm0-17.225a7.503 7.503 0 0 0-7.52 7.52 7.503 7.503 0 0 0 7.52 7.52 7.503 7.503 0 0 0 7.52-7.52c0-4.116-3.353-7.52-7.52-7.52zm0 13.668a6.137 6.137 0 0 1-6.148-6.148 6.137 6.137 0 0 1 6.148-6.148 6.137 6.137 0 0 1 6.149 6.148 6.137 6.137 0 0 1-6.149 6.148zm4.523-13.82c.254-.356.813-.458 1.168-.204.356.254.458.762.204 1.169-.255.356-.813.457-1.17.203-.355-.305-.456-.813-.202-1.168zm1.372 14.379c.254.356.203.915-.204 1.169-.355.254-.914.203-1.168-.203-.254-.356-.204-.915.203-1.17.406-.253.914-.152 1.169.204z" fill="#004D86"/><path d="M32.367 9.095a.851.851 0 0 1 .508-1.067.851.851 0 0 1 1.067.508.851.851 0 0 1-.508 1.067c-.457.153-.915-.05-1.067-.508zm1.575 5.488c-.152.457-.61.66-1.067.508-.457-.152-.66-.61-.508-1.067.152-.457.61-.66 1.067-.508.407.152.66.66.508 1.067zM24.694 4.065a7.503 7.503 0 0 0-7.52 7.52 7.503 7.503 0 0 0 7.52 7.52 7.503 7.503 0 0 0 7.52-7.52c0-4.116-3.353-7.52-7.52-7.52zm0 13.668a6.137 6.137 0 0 1-6.148-6.148 6.137 6.137 0 0 1 6.148-6.148 6.137 6.137 0 0 1 6.149 6.148 6.137 6.137 0 0 1-6.149 6.148zm0-14.227a.813.813 0 1 0 0-1.626.813.813 0 0 0 0 1.626zm-4.725 1.575c-.356.254-.915.203-1.169-.203-.254-.407-.203-.915.203-1.169.356-.254.915-.203 1.17.203.253.356.152.915-.204 1.17zm-2.947 4.014c-.153.458-.61.66-1.067.508-.457-.152-.66-.61-.508-1.067.152-.457.61-.66 1.067-.508.406.153.66.66.508 1.067zm-.508 6.047a.851.851 0 0 1-1.067-.508.851.851 0 0 1 .508-1.067.851.851 0 0 1 1.067.508.851.851 0 0 1-.508 1.067zm3.607 4.116c-.254.355-.813.457-1.168.203-.356-.254-.458-.762-.203-1.169.253-.356.813-.457 1.168-.203.407.305.508.813.203 1.169zm4.573 2.032a.813.813 0 1 0 0-1.626.813.813 0 0 0 0 1.626zm5.691-1.83c-.355.255-.914.204-1.168-.202-.254-.356-.204-.915.203-1.17.356-.253.914-.202 1.169.204.254.356.203.864-.204 1.169z" fill="#004D86"/><path d="M33.942 14.583c-.152.457-.61.66-1.067.508-.457-.152-.66-.61-.508-1.067.152-.457.61-.66 1.067-.508.407.152.66.66.508 1.067zm-.559-4.98a.851.851 0 0 1-1.067-.508.851.851 0 0 1 .508-1.067.851.851 0 0 1 1.067.508c.204.458-.05.966-.508 1.067zm-2.794-4.725c-.255.356-.813.457-1.17.203-.355-.254-.456-.762-.202-1.168.254-.356.813-.458 1.168-.204.407.305.458.813.204 1.169z" fill="#004D86"/></svg>