<svg width="212" height="35" fill="none" xmlns="http://www.w3.org/2000/svg"><path d="M11.52 12.643H4.563v13.315H0V8.378h16.158v17.58h-4.563V12.643h-.075zm47.203-4.265h14.886v13.316h2.992l-.897 8.079H71.44l.299-3.815H59.695l-.075 3.815h-4.264v-8.08h1.571c.748-.074 1.272-.598 1.272-1.57l.524-11.745zm3.516 13.316h6.732v-9.052h-5.835l-.299 5.985c-.075 1.122-.224 2.169-.599 3.067zm41.517 4.264H78.995V8.378h4.563v13.316h5.461V8.378h4.563v13.316h5.461V8.378h4.563v17.58h.15zm10.024 0h-5.461V8.378h4.563v11.894h.225l7.106-11.894h5.461v17.58h-4.563V14.063h-.225l-7.106 11.895zm28.052-13.316h-6.957v13.316h-4.563V8.378h16.158v17.58h-4.563V12.642h-.075zm21.395 6.433h-7.631v6.883h-4.563V8.378h4.563v6.434h7.631V8.378h4.563v17.58h-4.563v-6.883zm14.661 6.883h-5.46V8.378h4.563v11.894h.224l7.107-11.894h5.461v17.58h-4.564V14.063h-.299l-7.032 11.895zm27.08-9.576v.524l7.032 8.08v.972h-5.087l-6.134-7.331h-1.795v7.33h-4.563V8.379h4.563v6.508h1.72l5.686-6.508h4.787v.973l-6.209 7.031zm-182.227-3.74c.224-.673.898-.972 1.57-.748.674.225.973.898.749 1.571-.224.673-.898.973-1.57.748a1.253 1.253 0 0 1-.749-1.57zm2.319 8.079a1.253 1.253 0 0 1-.748 1.571 1.253 1.253 0 0 1-1.571-.748 1.253 1.253 0 0 1 .748-1.57 1.253 1.253 0 0 1 1.571.747zm2.618-13.54c-.374-.523-.299-1.346.3-1.72.523-.374 1.346-.3 1.72.299.374.524.3 1.347-.3 1.72-.598.375-1.346.3-1.72-.299zm1.945 21.17c-.374.524-1.197.674-1.72.3-.524-.374-.674-1.122-.3-1.72.374-.524 1.197-.674 1.72-.3.6.449.749 1.197.3 1.72zm6.733-23.189a1.197 1.197 0 1 0 0-2.394 1.197 1.197 0 0 0 0 2.394zm0 26.181a1.197 1.197 0 1 0 0-2.393 1.197 1.197 0 0 0 0 2.393zm0-25.358a11.046 11.046 0 0 0-11.072 11.07 11.046 11.046 0 0 0 11.072 11.072 11.046 11.046 0 0 0 11.071-11.071c0-6.06-4.937-11.071-11.071-11.071zm0 20.122a9.035 9.035 0 0 1-9.052-9.051 9.035 9.035 0 0 1 9.052-9.052 9.035 9.035 0 0 1 9.051 9.052 9.035 9.035 0 0 1-9.051 9.051zM43.013 5.76c.374-.524 1.197-.673 1.721-.3.524.375.673 1.123.3 1.721-.375.524-1.198.673-1.721.3-.524-.45-.674-1.197-.3-1.721zm2.02 21.17c.374.524.3 1.347-.3 1.72-.523.375-1.346.3-1.72-.299-.374-.523-.299-1.346.3-1.72.598-.374 1.346-.224 1.72.3z" fill="#fff"/><path d="M36.356 0C26.93 0 19.3 7.63 19.3 17.056c0 9.425 7.63 17.055 17.056 17.055 9.425 0 17.055-7.63 17.055-17.055C53.411 7.63 45.781 0 36.356 0zm0 32.092c-8.304 0-15.036-6.733-15.036-15.036 0-8.304 6.732-15.036 15.036-15.036 8.303 0 15.036 6.732 15.036 15.036 0 8.303-6.733 15.036-15.036 15.036z" fill="#fff"/><path d="M47.651 13.39a1.253 1.253 0 0 1 .748-1.571 1.253 1.253 0 0 1 1.571.748 1.253 1.253 0 0 1-.748 1.571c-.673.224-1.346-.075-1.57-.748zm2.319 8.08c-.224.672-.897.972-1.57.747-.674-.224-.973-.897-.749-1.57.225-.674.898-.973 1.571-.749.599.225.973.973.748 1.571zm-27.229-8.828c.224-.673.898-.972 1.57-.748.674.225.973.898.749 1.571-.224.673-.898.973-1.57.748a1.253 1.253 0 0 1-.749-1.57zm2.319 8.079a1.253 1.253 0 0 1-.748 1.571 1.253 1.253 0 0 1-1.571-.748 1.253 1.253 0 0 1 .748-1.57 1.253 1.253 0 0 1 1.571.747zm2.618-13.54c-.374-.523-.299-1.346.3-1.72.523-.374 1.346-.3 1.72.299.374.524.3 1.347-.3 1.72-.598.375-1.346.3-1.72-.299zm1.945 21.17c-.374.524-1.197.674-1.72.3-.524-.374-.674-1.122-.3-1.72.374-.524 1.197-.674 1.72-.3.6.449.749 1.197.3 1.72zm6.733-23.189a1.197 1.197 0 1 0 0-2.394 1.197 1.197 0 0 0 0 2.394zm0 26.181a1.197 1.197 0 1 0 0-2.393 1.197 1.197 0 0 0 0 2.393zm0-25.358a11.046 11.046 0 0 0-11.072 11.07 11.046 11.046 0 0 0 11.072 11.072 11.046 11.046 0 0 0 11.071-11.071c0-6.06-4.937-11.071-11.071-11.071zm0 20.122a9.035 9.035 0 0 1-9.052-9.051 9.035 9.035 0 0 1 9.052-9.052 9.035 9.035 0 0 1 9.051 9.052 9.035 9.035 0 0 1-9.051 9.051zM43.013 5.76c.374-.524 1.197-.673 1.721-.3.524.375.673 1.123.3 1.721-.375.524-1.198.673-1.721.3-.524-.45-.674-1.197-.3-1.721zm2.02 21.17c.374.524.3 1.347-.3 1.72-.523.375-1.346.3-1.72-.299-.374-.523-.299-1.346.3-1.72.598-.374 1.346-.224 1.72.3z" fill="#fff"/><path d="M47.651 13.39a1.253 1.253 0 0 1 .748-1.571 1.253 1.253 0 0 1 1.571.748 1.253 1.253 0 0 1-.748 1.571c-.673.224-1.346-.075-1.57-.748zm2.319 8.08c-.224.672-.897.972-1.57.747-.674-.224-.973-.897-.749-1.57.225-.674.898-.973 1.571-.749.599.225.973.973.748 1.571zm-27.229-8.828c.224-.673.898-.972 1.57-.748.674.225.973.898.749 1.571-.224.673-.898.973-1.57.748a1.253 1.253 0 0 1-.749-1.57zm2.319 8.079a1.253 1.253 0 0 1-.748 1.571 1.253 1.253 0 0 1-1.571-.748 1.253 1.253 0 0 1 .748-1.57 1.253 1.253 0 0 1 1.571.747zm2.618-13.54c-.374-.523-.299-1.346.3-1.72.523-.374 1.346-.3 1.72.299.374.524.3 1.347-.3 1.72-.598.375-1.346.3-1.72-.299zm1.945 21.17c-.374.524-1.197.674-1.72.3-.524-.374-.674-1.122-.3-1.72.374-.524 1.197-.674 1.72-.3.6.449.749 1.197.3 1.72zm6.733-23.189a1.197 1.197 0 1 0 0-2.394 1.197 1.197 0 0 0 0 2.394zm0 26.181a1.197 1.197 0 1 0 0-2.393 1.197 1.197 0 0 0 0 2.393zm0-25.358a11.046 11.046 0 0 0-11.072 11.07 11.046 11.046 0 0 0 11.072 11.072 11.046 11.046 0 0 0 11.071-11.071c0-6.06-4.937-11.071-11.071-11.071zm0 20.122a9.035 9.035 0 0 1-9.052-9.051 9.035 9.035 0 0 1 9.052-9.052 9.035 9.035 0 0 1 9.051 9.052 9.035 9.035 0 0 1-9.051 9.051zM43.013 5.76c.374-.524 1.197-.673 1.721-.3.524.375.673 1.123.3 1.721-.375.524-1.198.673-1.721.3-.524-.45-.674-1.197-.3-1.721zm2.02 21.17c.374.524.3 1.347-.3 1.72-.523.375-1.346.3-1.72-.299-.374-.523-.299-1.346.3-1.72.598-.374 1.346-.224 1.72.3z" fill="#fff"/><path d="M47.651 13.39a1.253 1.253 0 0 1 .748-1.571 1.253 1.253 0 0 1 1.571.748 1.253 1.253 0 0 1-.748 1.571c-.673.224-1.346-.075-1.57-.748zm2.319 8.08c-.224.672-.897.972-1.57.747-.674-.224-.973-.897-.749-1.57.225-.674.898-.973 1.571-.749.599.225.973.973.748 1.571zM36.356 5.985a11.046 11.046 0 0 0-11.072 11.07 11.046 11.046 0 0 0 11.072 11.072 11.046 11.046 0 0 0 11.071-11.071c0-6.06-4.937-11.071-11.071-11.071zm0 20.122a9.035 9.035 0 0 1-9.052-9.051 9.035 9.035 0 0 1 9.052-9.052 9.035 9.035 0 0 1 9.051 9.052 9.035 9.035 0 0 1-9.051 9.051zm0-20.945a1.197 1.197 0 1 0 0-2.394 1.197 1.197 0 0 0 0 2.394zM29.399 7.48c-.524.375-1.347.3-1.72-.299-.375-.598-.3-1.346.298-1.72.524-.374 1.347-.3 1.72.299.375.524.225 1.347-.298 1.72zm-4.339 5.91c-.224.674-.898.973-1.57.748-.674-.224-.973-.897-.749-1.57.224-.674.898-.973 1.57-.748.6.224.973.972.749 1.57zm-.748 8.902a1.253 1.253 0 0 1-1.571-.748 1.253 1.253 0 0 1 .748-1.57 1.253 1.253 0 0 1 1.571.747 1.253 1.253 0 0 1-.748 1.571zm5.311 6.059c-.374.524-1.197.674-1.72.3-.524-.374-.674-1.122-.3-1.72.374-.524 1.197-.674 1.72-.3.6.449.749 1.197.3 1.72zm6.733 2.992a1.197 1.197 0 1 0 0-2.393 1.197 1.197 0 0 0 0 2.393zm8.378-2.693c-.524.375-1.347.3-1.72-.299-.375-.523-.3-1.346.299-1.72.523-.374 1.346-.3 1.72.299.374.524.3 1.272-.3 1.72z" fill="#fff"/><path d="M49.97 21.47c-.224.672-.897.972-1.57.747-.674-.224-.973-.897-.749-1.57.225-.674.898-.973 1.571-.749.599.225.973.973.748 1.571zm-.822-7.332a1.253 1.253 0 0 1-1.571-.748 1.253 1.253 0 0 1 .748-1.571 1.253 1.253 0 0 1 1.57.748c.3.673-.074 1.421-.748 1.571zm-4.115-6.957c-.374.524-1.197.673-1.72.3-.524-.375-.674-1.123-.3-1.721.374-.524 1.197-.673 1.721-.3.598.45.673 1.198.3 1.721z" fill="#fff"/></svg>